<svg width="250" height="250" viewBox="0 0 250 250" fill="none" xmlns="http://www.w3.org/2000/svg">
<path d="M20.8648 130.336C20.2411 130.842 19.5247 131.095 18.7155 131.095C17.9232 131.095 17.2827 130.87 16.7938 130.42C16.3218 129.952 16.0858 129.418 16.0858 128.819C16.0858 128.219 16.1701 127.779 16.3387 127.498C16.8275 127.816 17.5945 127.975 18.6397 127.975C19.7017 127.975 20.5782 127.179 21.2694 125.587V112.097C21.2694 111.217 21.1008 110.561 20.7637 110.13C20.258 109.455 19.3982 108.79 18.1845 108.135C19.4151 107.479 20.1905 106.935 20.5108 106.505C21.0165 105.793 21.2694 104.996 21.2694 104.116V92.2561C20.6962 90.8135 19.6595 90.0922 18.1592 90.0922C17.5861 90.0922 17.1141 90.2514 16.7432 90.5699C16.5578 90.2889 16.4651 89.961 16.4651 89.5863C16.4651 89.2116 16.5494 88.865 16.7179 88.5465C16.8865 88.228 17.1057 87.947 17.3754 87.7034C17.9654 87.2163 18.7577 86.9727 19.7522 86.9727C20.7637 86.9727 21.6234 87.2819 22.3314 87.9001C22.8034 87.2819 23.4524 86.9727 24.2784 86.9727C25.1044 86.9727 25.7703 87.2912 26.276 87.9282C26.7648 87.2912 27.2621 86.9727 27.7679 86.9727C28.2904 86.9727 28.6781 87.0289 28.931 87.1413C29.2007 87.2538 29.4283 87.4036 29.6137 87.591C29.8834 87.8346 30.1869 88.3123 30.524 89.0243L46.2012 120.416V111.844C46.2012 111.02 46.0411 110.411 45.7208 110.017C45.2319 109.437 44.3638 108.809 43.1164 108.135C44.2795 107.498 45.0297 106.982 45.3668 106.589C45.9231 105.933 46.2012 105.202 46.2012 104.397V92.6215C45.8135 91.8346 45.3331 91.2163 44.7599 90.7667C44.2036 90.317 43.5631 90.0922 42.8382 90.0922C42.1302 90.0922 41.5318 90.2514 41.0429 90.5699C40.8575 90.2327 40.7648 89.7737 40.7648 89.1929C40.7648 88.5933 41.0261 88.0781 41.5486 87.6472C42.0712 87.1975 42.7539 86.9727 43.5968 86.9727C44.4396 86.9727 45.1898 87.2163 45.8472 87.7034C46.4372 87.2163 47.1115 86.9727 47.8701 86.9727C48.6455 86.9727 49.3282 87.2257 49.9183 87.7315C50.5757 87.2257 51.3005 86.9727 52.0928 86.9727C52.8851 86.9727 53.5173 87.2069 53.9893 87.6753C54.4781 88.125 54.7226 88.6496 54.7226 89.2491C54.7226 89.8486 54.6383 90.2889 54.4697 90.5699C53.9808 90.2514 53.197 90.0922 52.1181 90.0922C51.0393 90.0922 50.1795 90.8978 49.539 92.5091V104.397C49.539 105.202 49.6907 105.793 49.9941 106.167C50.4998 106.786 51.3764 107.441 52.6238 108.135C51.2584 108.959 50.4408 109.53 50.1711 109.849C49.7497 110.355 49.539 111.02 49.539 111.844L49.9941 126.121C50.601 127.357 51.5534 127.975 52.8514 127.975C53.4246 127.975 53.8966 127.816 54.2674 127.498C54.4528 127.779 54.5456 128.107 54.5456 128.481C54.5456 128.856 54.4613 129.203 54.2927 129.521C54.1241 129.84 53.905 130.121 53.6353 130.364C53.0453 130.851 52.3288 131.095 51.486 131.095C50.6431 131.095 49.8845 130.908 49.2102 130.533C47.8785 131.376 46.5215 131.31 45.1392 130.336C44.5998 130.842 44.0856 131.095 43.5968 131.095C43.1079 131.095 42.7455 131.048 42.5095 130.954C42.2735 130.861 42.0544 130.692 41.8521 130.449C41.5318 130.093 41.0345 129.203 40.3602 127.779L24.8094 97.9892V125.587C25.5006 127.179 26.3771 127.975 27.4391 127.975C28.5011 127.975 29.2766 127.816 29.7654 127.498C29.9509 127.835 30.0436 128.303 30.0436 128.903C30.0436 129.484 29.7823 129.999 29.2597 130.449C28.7371 130.879 28.0629 131.095 27.2369 131.095C26.4108 131.095 25.6523 130.861 24.9611 130.392C24.3543 130.861 23.6547 131.095 22.8624 131.095C22.087 131.095 21.4211 130.842 20.8648 130.336ZM40.6383 123.086C40.7563 122.917 40.8153 122.655 40.8153 122.299C40.8153 121.924 40.7648 121.512 40.6636 121.062C40.5793 120.594 40.4529 120.097 40.2843 119.573C39.9303 118.523 39.4668 117.399 38.8936 116.2L28.1724 95.4037C28.0544 95.6098 27.9954 95.9845 27.9954 96.5279C27.9954 97.6895 28.7119 99.7223 30.1447 102.626L40.6383 123.086Z" fill="black"/>
<path d="M82.36 131.095C79.9831 131.095 78.702 129.268 78.5165 125.615C77.6568 127.338 76.4937 128.706 75.0271 129.718C73.5774 130.73 72.0096 131.235 70.3239 131.235C68.6551 131.235 67.2981 130.983 66.2529 130.477C65.2078 129.971 64.3396 129.24 63.6485 128.285C62.2999 126.411 61.6256 123.751 61.6256 120.303V118.561C61.6256 116.388 60.5973 114.776 58.5407 113.727C59.7544 113.071 60.5299 112.519 60.867 112.069C61.3727 111.376 61.6256 110.598 61.6256 109.736V105.942C61.6256 104.35 61.1367 103.488 60.159 103.357C59.8724 103.319 59.51 103.301 59.0717 103.301C58.6334 103.301 58.2289 103.46 57.858 103.779C57.622 103.423 57.504 103.057 57.504 102.682C57.504 102.289 57.5883 101.858 57.7569 101.39C57.9423 100.903 58.2204 100.444 58.5913 100.013C59.4679 99.0009 60.4877 98.4951 61.6509 98.4951C62.814 98.4951 63.9097 98.7105 64.938 99.1415C65.6798 97.9611 66.5563 97.371 67.5678 97.371C69.3041 97.371 70.1722 98.3827 70.1722 100.406V118.701C70.1722 122.261 70.9139 124.397 72.3974 125.109C72.8694 125.334 73.3919 125.446 73.9651 125.446C74.5551 125.446 75.0861 125.315 75.5581 125.053C76.0301 124.772 76.4431 124.397 76.7971 123.929C77.4545 123.011 77.876 121.755 78.0614 120.163V105.942C78.0614 103.807 77.2775 102.739 75.7098 102.739C75.1367 102.739 74.6647 102.898 74.2938 103.216C74.0578 102.86 73.9398 102.495 73.9398 102.12C73.9398 101.727 74.0241 101.324 74.1927 100.912C74.3781 100.481 74.6562 100.088 75.0271 99.7316C75.8531 98.9073 76.8561 98.4951 78.0361 98.4951C79.233 98.4951 80.3455 98.7105 81.3738 99.1415C82.1156 97.9611 82.9921 97.371 84.0036 97.371C85.7399 97.371 86.608 98.3827 86.608 100.406V109.736C86.608 110.598 86.7597 111.235 87.0632 111.647C87.6026 112.378 88.4792 113.071 89.6929 113.727C87.6363 114.776 86.608 116.388 86.608 118.561V125.812C86.9283 127.254 87.6279 127.975 88.7067 127.975C89.2799 127.975 89.7519 127.816 90.1227 127.498C90.3587 127.854 90.4767 128.303 90.4767 128.847C90.4767 129.371 90.2323 129.877 89.7434 130.364C89.2714 130.851 88.5213 131.095 87.493 131.095C86.4816 131.095 85.5207 130.795 84.6104 130.196C83.9361 130.795 83.186 131.095 82.36 131.095ZM80.4635 123.086C81.4413 122.655 81.9554 120.584 82.006 116.875C82.006 116.088 82.006 115.188 82.006 114.177C82.006 113.165 81.9976 112.303 81.9807 111.591C81.9807 110.861 81.9723 110.167 81.9554 109.512C81.888 107.151 81.6941 105.746 81.3738 105.296C81.0535 104.828 80.7501 104.519 80.4635 104.369V123.086ZM65.3426 113.727L65.4185 110.017C65.4185 108.35 65.3679 107.245 65.2668 106.701C64.9802 105.277 64.5756 104.5 64.053 104.369V106.195C64.053 109.362 63.9856 111.226 63.8507 111.788C63.7327 112.331 63.5305 112.743 63.2439 113.025C62.9742 113.287 62.5696 113.521 62.0302 113.727C63.0416 114.121 63.6147 114.598 63.7496 115.16C63.9519 116.06 64.053 118.092 64.053 121.259V123.086C64.5588 122.954 64.9718 122.121 65.292 120.584C65.3763 120.153 65.4185 119.104 65.4185 117.437L65.3426 113.727Z" fill="black"/>
<path d="M98.7958 130.196C98.0203 130.795 97.1353 131.095 96.1408 131.095C95.1462 131.095 94.4213 130.842 93.9662 130.336C93.5279 129.812 93.3088 129.315 93.3088 128.847C93.3088 128.228 93.4015 127.779 93.5869 127.498C93.9578 127.816 94.4298 127.975 95.0029 127.975C96.0818 127.975 96.7813 127.395 97.1016 126.233V117.465C97.1016 116.64 96.9415 116.041 96.6212 115.666C96.1661 115.085 95.2979 114.448 94.0168 113.755C95.1968 113.156 95.9469 112.678 96.2672 112.322C96.8235 111.704 97.1016 110.945 97.1016 110.046V105.942C97.1016 104.35 96.6128 103.488 95.6351 103.357C95.3485 103.319 94.986 103.301 94.5478 103.301C94.1095 103.301 93.7049 103.46 93.334 103.779C93.098 103.423 92.98 103.057 92.98 102.682C92.98 102.289 93.0643 101.858 93.2329 101.39C93.4183 100.903 93.688 100.444 94.042 100.013C94.9355 99.0009 95.9638 98.4951 97.1269 98.4951C98.3069 98.4951 99.2846 98.7012 100.06 99.1134C100.987 97.9518 101.982 97.371 103.044 97.371C104.78 97.371 105.648 98.3827 105.648 100.406L105.623 102.739C107.039 100.228 109.011 98.57 111.54 97.7644C112.366 97.5021 113.217 97.371 114.094 97.371C116.083 97.371 117.735 97.9049 119.05 98.9728C120.365 100.041 121.309 101.558 121.882 103.526C123.146 100.622 125.194 98.7199 128.026 97.8206C128.953 97.5208 129.998 97.371 131.162 97.371C132.342 97.371 133.446 97.6239 134.474 98.1297C135.519 98.6169 136.404 99.3194 137.129 100.237C138.596 102.149 139.329 104.79 139.329 108.163L139.253 110.046C139.253 110.945 139.43 111.591 139.784 111.985C140.307 112.565 141.158 113.156 142.338 113.755C141.057 114.448 140.265 114.982 139.961 115.357C139.489 115.938 139.253 116.64 139.253 117.465V126.233C139.573 127.395 140.273 127.975 141.352 127.975C141.756 127.975 142.144 127.816 142.515 127.498C142.616 127.648 142.726 127.797 142.844 127.947C142.979 128.079 143.046 128.378 143.046 128.847C143.046 129.315 142.818 129.812 142.363 130.336C141.925 130.842 141.217 131.095 140.239 131.095C139.278 131.095 138.385 130.795 137.559 130.196C136.8 130.795 135.949 131.095 135.005 131.095C134.078 131.095 133.26 130.814 132.552 130.252C131.895 130.814 131.153 131.095 130.327 131.095C129.518 131.095 128.869 130.861 128.38 130.392C127.891 129.924 127.647 129.249 127.647 128.369C127.647 127.957 127.773 127.629 128.026 127.385C128.414 127.723 128.802 127.891 129.189 127.891C129.931 127.891 130.462 127.432 130.782 126.514V109.765C130.782 105.362 129.341 103.16 126.458 103.16C125.632 103.16 124.823 103.694 124.031 104.762C123.239 105.811 122.725 107.085 122.489 108.584L122.413 126.514C122.733 127.432 123.264 127.891 124.006 127.891C124.393 127.891 124.781 127.723 125.169 127.385C125.422 127.629 125.548 128.079 125.548 128.734C125.548 129.371 125.304 129.924 124.815 130.392C124.326 130.861 123.669 131.095 122.843 131.095C122.017 131.095 121.275 130.814 120.617 130.252C119.893 130.814 119.067 131.095 118.139 131.095C117.229 131.095 116.42 130.814 115.712 130.252C115.055 130.814 114.313 131.095 113.487 131.095C112.678 131.095 112.029 130.861 111.54 130.392C111.051 129.924 110.807 129.249 110.807 128.369C110.807 127.957 110.933 127.629 111.186 127.385C111.574 127.723 111.961 127.891 112.349 127.891C113.091 127.891 113.622 127.432 113.942 126.514V109.765C113.942 106.261 113.175 104.172 111.641 103.497C111.152 103.273 110.613 103.16 110.023 103.16C108.893 103.16 107.916 103.704 107.09 104.79C106.314 105.802 105.825 107.076 105.623 108.612L105.572 126.514C105.893 127.432 106.424 127.891 107.165 127.891C107.553 127.891 107.941 127.723 108.329 127.385C108.632 127.666 108.784 128.125 108.784 128.762C108.784 129.381 108.522 129.924 108 130.392C107.494 130.861 106.82 131.095 105.977 131.095C105.151 131.095 104.418 130.823 103.777 130.28C103.103 130.823 102.302 131.095 101.375 131.095C100.448 131.095 99.5881 130.795 98.7958 130.196ZM132.451 104.369C132.957 105.736 133.21 108.406 133.21 112.378V123.086C134.053 122.73 134.516 121.502 134.601 119.404C134.702 117.306 134.752 115.451 134.752 113.84C134.752 112.21 134.71 110.851 134.626 109.765C134.542 108.678 134.407 107.769 134.221 107.039C133.884 105.727 133.294 104.837 132.451 104.369ZM115.611 104.369C116.117 105.736 116.369 108.406 116.369 112.378V123.086C117.212 122.73 117.676 121.502 117.76 119.404C117.861 117.306 117.912 115.451 117.912 113.84C117.912 112.21 117.87 110.851 117.785 109.765C117.701 108.678 117.566 107.769 117.381 107.039C117.044 105.727 116.454 104.837 115.611 104.369ZM99.5291 123.086C100.321 122.523 100.768 121.352 100.869 119.573C100.937 118.224 100.97 117.015 100.97 115.947V112.378C100.97 109.605 100.903 107.825 100.768 107.039C100.532 105.69 100.119 104.8 99.5291 104.369V106.195C99.5291 109.362 99.4616 111.226 99.3268 111.788C99.2088 112.331 99.0065 112.743 98.7199 113.025C98.4502 113.306 98.0456 113.549 97.5062 113.755C98.5176 114.149 99.0908 114.617 99.2256 115.16C99.4279 116.06 99.5291 118.092 99.5291 121.259V123.086Z" fill="black"/>
<path d="M156.574 128.566C154.736 130.252 152.865 131.095 150.96 131.095C149.258 131.095 148.213 130.851 147.825 130.364C148.196 129.858 148.398 129.1 148.432 128.088C148.466 127.076 148.482 126.13 148.482 125.249V117.437C148.482 116.612 148.322 116.013 148.002 115.638C147.547 115.057 146.679 114.42 145.398 113.727C146.578 113.128 147.328 112.65 147.648 112.294C148.204 111.676 148.482 110.926 148.482 110.046V94.1391C148.482 92.0032 147.699 90.9353 146.131 90.9353C145.558 90.9353 145.086 91.0945 144.715 91.413C144.479 91.0571 144.361 90.6917 144.361 90.317C144.361 89.9236 144.445 89.5489 144.614 89.1929C144.799 88.8369 145.069 88.509 145.423 88.2093C146.232 87.5723 147.243 87.2538 148.457 87.2538C149.671 87.2538 150.623 87.3381 151.314 87.5067C152.326 86.2139 153.363 85.5676 154.425 85.5676C156.161 85.5676 157.029 86.5793 157.029 88.6027V100.631C158.327 99.1883 160.063 98.1859 162.238 97.6239C162.895 97.4553 163.747 97.371 164.792 97.371C165.837 97.371 166.933 97.5396 168.079 97.8768C169.225 98.2141 170.22 98.8136 171.063 99.6754C172.748 101.399 173.785 104.472 174.173 108.893C174.341 111.198 175.37 112.828 177.258 113.783C176.061 114.439 175.302 114.992 174.982 115.441C174.544 116.078 174.274 116.837 174.173 117.718C173.684 122.233 172.639 125.568 171.037 127.723C169.284 130.065 166.747 131.235 163.426 131.235C161.724 131.235 159.971 130.72 158.167 129.69C157.577 129.371 157.046 128.997 156.574 128.566ZM154.602 95.4037C153.91 95.7597 153.489 96.4342 153.337 97.4272C153.152 98.6637 153.059 100.706 153.059 103.554V108.781C153.076 109.793 153.093 111.17 153.11 112.912C153.127 114.636 153.143 115.966 153.16 116.903C153.194 118.926 153.245 120.21 153.312 120.753C153.379 121.296 153.531 121.793 153.767 122.242C154.02 122.673 154.298 122.954 154.602 123.086V95.4037ZM157.029 121.624C157.029 123.142 157.493 124.444 158.42 125.53C159.296 126.598 160.291 127.132 161.404 127.132C164.219 127.132 165.626 124.884 165.626 120.388V108.078C165.626 104.556 164.893 102.467 163.426 101.811C162.954 101.586 162.423 101.474 161.833 101.474C159.676 101.474 158.218 102.626 157.459 104.931C157.172 105.774 157.029 106.823 157.029 108.078V121.624ZM168.054 123.086C168.897 122.73 169.36 121.502 169.444 119.404C169.546 117.306 169.596 115.751 169.596 114.739C169.596 113.708 169.588 112.856 169.571 112.181C169.571 111.488 169.562 110.776 169.546 110.046C169.478 107.31 169.284 105.718 168.964 105.268C168.644 104.818 168.34 104.519 168.054 104.369V123.086Z" fill="black"/>
<path d="M202.695 122.046C203.066 121.259 203.749 120.865 204.743 120.865C205.418 120.865 205.94 121.174 206.311 121.793C206.615 122.28 206.766 122.879 206.766 123.591C206.766 124.285 206.606 124.987 206.286 125.699C205.966 126.411 205.527 127.057 204.971 127.638C204.415 128.219 203.774 128.734 203.049 129.184C202.341 129.634 201.583 130.008 200.774 130.308C199.105 130.926 197.368 131.235 195.565 131.235C193.761 131.235 192.067 130.908 190.482 130.252C188.915 129.577 187.566 128.641 186.436 127.442C184.228 125.081 182.88 121.84 182.391 117.718C182.273 116.8 182.079 116.144 181.809 115.751C181.303 115.057 180.469 114.392 179.306 113.755C180.772 113.025 181.708 111.854 182.113 110.242C182.231 109.793 182.323 109.343 182.391 108.893C182.812 105.596 184.312 102.786 186.892 100.462C189.387 98.2141 192.176 97.0899 195.261 97.0899C198.464 97.0899 201.237 98.3452 203.58 100.856C206.008 103.441 207.221 106.617 207.221 110.383C207.221 110.514 207.213 110.645 207.196 110.776C207.196 110.907 207.205 111.029 207.221 111.142C207.255 111.385 207.39 111.526 207.626 111.563C207.929 111.994 208.081 112.453 208.081 112.94C208.081 114.064 207.542 114.729 206.463 114.936C206.193 114.992 205.772 115.067 205.199 115.16L190.937 117.69V120.388C190.937 122.561 191.527 124.285 192.707 125.559C193.82 126.776 195.228 127.385 196.93 127.385C198.734 127.385 200.184 126.973 201.279 126.149C202.308 125.362 202.822 124.331 202.822 123.057C202.822 122.758 202.78 122.42 202.695 122.046ZM198.27 112.968V105.099C198.27 103.863 198.051 102.954 197.613 102.373C196.837 101.38 196.07 100.884 195.312 100.884C194.553 100.884 193.921 101.015 193.415 101.277C192.91 101.521 192.471 101.914 192.101 102.458C191.325 103.601 190.937 105.38 190.937 107.797V114.289L198.27 112.968ZM202.013 112.266V111.395C202.013 107.91 201.751 105.802 201.229 105.071C200.993 104.753 200.731 104.519 200.445 104.369V112.547L202.013 112.266ZM186.816 123.086C187.052 122.879 187.17 122.645 187.17 122.383C187.17 121.971 187.094 121.446 186.942 120.809C186.251 117.868 185.905 115.825 185.905 114.683C185.905 113.521 185.939 112.622 186.007 111.985C186.074 111.329 186.167 110.673 186.285 110.017C186.487 108.743 186.706 107.619 186.942 106.645C187.094 106.008 187.17 105.577 187.17 105.352C187.17 104.903 187.052 104.575 186.816 104.369C186.108 105.305 185.568 106.561 185.197 108.135C184.827 109.708 184.523 111.095 184.287 112.294C184.203 112.8 183.706 113.287 182.795 113.755C183.706 114.224 184.203 114.692 184.287 115.16C184.911 118.327 185.425 120.341 185.83 121.203C186.234 122.064 186.563 122.692 186.816 123.086Z" fill="black"/>
<path d="M216.097 130.196C215.321 130.795 214.436 131.095 213.442 131.095C212.447 131.095 211.722 130.842 211.267 130.336C210.829 129.812 210.61 129.315 210.61 128.847C210.61 128.228 210.702 127.779 210.888 127.498C211.259 127.816 211.731 127.975 212.304 127.975C213.383 127.975 214.082 127.395 214.403 126.233V117.718C214.403 116.856 214.251 116.219 213.947 115.807C213.408 115.076 212.531 114.383 211.318 113.727C213.374 112.678 214.403 111.067 214.403 108.893V105.942C214.403 104.35 213.914 103.488 212.936 103.357C212.649 103.319 212.287 103.301 211.849 103.301C211.41 103.301 211.006 103.46 210.635 103.779C210.399 103.423 210.281 103.057 210.281 102.682C210.281 102.289 210.365 101.858 210.534 101.39C210.719 100.903 210.997 100.444 211.368 100.013C212.245 99.0009 213.265 98.4951 214.428 98.4951C215.608 98.4951 216.586 98.7012 217.361 99.1134C218.288 97.9518 219.283 97.371 220.345 97.371C221.997 97.371 222.823 98.3827 222.823 100.406V104.256C224.509 99.6473 227.189 97.3428 230.864 97.3428C232.516 97.3428 233.856 97.9049 234.884 99.029C235.946 100.172 236.477 101.755 236.477 103.779V104.172C236.477 104.303 236.46 104.575 236.427 104.987C236.393 105.38 236.401 105.783 236.452 106.195C236.519 106.608 236.62 106.945 236.755 107.207C236.941 107.601 237.286 107.91 237.792 108.135C237.674 108.64 237.396 109.099 236.958 109.512C236.536 109.905 236.064 110.102 235.542 110.102H235.061C234.404 111.02 233.485 111.666 232.305 112.041C231.968 112.153 231.597 112.21 231.192 112.21C230.805 112.21 230.459 112.116 230.156 111.928C229.869 111.722 229.709 111.507 229.675 111.282C229.996 111.113 230.156 110.776 230.156 110.27V110.13C230.021 110.167 229.903 110.186 229.802 110.186H229.549C228.993 110.186 228.487 109.952 228.032 109.483C227.593 109.015 227.307 108.425 227.172 107.713C228.082 107.75 228.875 107.376 229.549 106.589C230.156 105.896 230.459 105.184 230.459 104.453C230.459 102.729 229.785 101.867 228.436 101.867C227.273 101.867 226.102 102.898 224.922 104.959C223.809 106.851 223.109 108.809 222.823 110.832V126.036C223.008 126.692 223.295 127.179 223.683 127.498C224.07 127.816 224.601 127.975 225.276 127.975C225.95 127.975 226.472 127.816 226.843 127.498C227.029 127.779 227.121 128.191 227.121 128.734C227.121 129.278 226.894 129.812 226.439 130.336C226 130.842 225.25 131.095 224.188 131.095C223.143 131.095 222.14 130.776 221.179 130.139C220.505 130.776 219.687 131.095 218.727 131.095C217.766 131.095 216.889 130.795 216.097 130.196ZM218.271 116.875C218.288 116.238 218.297 115.704 218.297 115.273C218.314 114.842 218.322 114.495 218.322 114.233V113.474C218.322 113.193 218.314 112.837 218.297 112.406C218.297 111.957 218.288 111.46 218.271 110.917C218.271 110.355 218.263 109.811 218.246 109.287C218.145 107.338 217.951 106.092 217.665 105.549C217.395 104.987 217.117 104.603 216.83 104.397V106.224C216.83 109.371 216.763 111.226 216.628 111.788C216.51 112.331 216.308 112.743 216.021 113.025C215.751 113.287 215.347 113.521 214.807 113.727C215.819 114.121 216.392 114.598 216.527 115.16C216.729 116.06 216.83 118.083 216.83 121.231V123.057C217.606 122.495 218.044 121.352 218.145 119.629C218.229 118.411 218.271 117.493 218.271 116.875Z" fill="black"/>
<path d="M14.779 197.101C14.1553 197.607 13.4389 197.859 12.6297 197.859C11.8374 197.859 11.1969 197.635 10.708 197.185C10.236 196.717 10 196.183 10 195.583C10 194.984 10.0843 194.543 10.2529 194.262C10.7417 194.581 11.5172 194.74 12.5792 194.74C13.0006 194.74 13.4642 194.506 13.9699 194.037C14.4756 193.55 14.8802 192.885 15.1836 192.042V178.862C15.1836 177.981 15.015 177.325 14.6779 176.894C14.1722 176.22 13.3124 175.555 12.0987 174.899C13.3293 174.243 14.1047 173.7 14.425 173.269C14.9307 172.557 15.1836 171.761 15.1836 170.88L15.2089 158.627C14.8043 157.447 13.9109 156.857 12.5286 156.857C11.8206 156.857 11.298 157.016 10.9609 157.334C10.7923 157.091 10.708 156.772 10.708 156.379C10.708 155.986 10.7839 155.63 10.9356 155.311C11.0873 154.993 11.298 154.711 11.5677 154.468C12.1409 153.981 12.9079 153.737 13.8687 153.737C14.8296 153.737 15.6219 154.046 16.2456 154.665C16.8019 154.046 17.4509 153.737 18.1926 153.737C18.9343 153.737 19.5665 154.084 20.089 154.777C20.7465 154.084 21.3281 153.737 21.8338 153.737C22.3395 153.737 22.7272 153.784 22.9969 153.878C23.2666 153.971 23.5364 154.149 23.8061 154.412C24.3455 154.88 24.9102 155.826 25.5002 157.25L35.1847 179.592L43.175 157.7L43.883 155.873C44.3045 154.843 44.7006 154.234 45.0715 154.046C45.4423 153.84 45.8722 153.737 46.361 153.737C46.8668 153.737 47.3809 153.943 47.9035 154.356C48.544 153.943 49.3785 153.737 50.4068 153.737C51.4519 153.737 52.3538 154.046 53.1124 154.665C53.7866 154.046 54.4862 153.737 55.2111 153.737C55.9528 153.737 56.5259 153.803 56.9305 153.934C57.3519 154.065 57.7144 154.243 58.0178 154.468C58.6584 154.974 58.9787 155.601 58.9787 156.351C58.9787 156.726 58.886 157.053 58.7005 157.334C58.3297 157.016 57.8577 156.857 57.2845 156.857C56.0034 156.857 55.1352 157.522 54.6801 158.852V170.88C54.6801 171.798 54.8571 172.482 55.2111 172.932C55.7674 173.663 56.6187 174.318 57.765 174.899C56.5344 175.574 55.7505 176.126 55.4134 176.557C54.9245 177.232 54.6801 178 54.6801 178.862V192.604C55.2532 194.028 56.2899 194.74 57.7902 194.74C58.3634 194.74 58.8354 194.581 59.2062 194.262C59.3917 194.543 59.4844 194.871 59.4844 195.246C59.4844 195.602 59.3832 195.939 59.181 196.258C58.9955 196.576 58.7342 196.848 58.3971 197.073C57.6217 197.597 56.7367 197.859 55.7421 197.859C54.7475 197.859 53.8204 197.56 52.9606 196.96C52.1684 197.56 51.2665 197.859 50.2551 197.859C49.1762 197.859 48.2238 197.56 47.3978 196.96C46.538 197.56 45.7373 197.859 44.9956 197.859C44.2707 197.859 43.6723 197.785 43.2003 197.635C42.7283 197.504 42.3153 197.316 41.9613 197.073C41.2364 196.585 40.874 195.977 40.874 195.246C40.874 194.871 40.9667 194.543 41.1522 194.262C41.523 194.581 41.995 194.74 42.5682 194.74C44.0685 194.74 45.1052 194.028 45.6783 192.604V161.887L35.8168 189.035L34.7296 191.789C34.207 193.101 33.8361 193.841 33.617 194.009C33.4147 194.178 33.2461 194.262 33.1113 194.262C32.6898 194.262 32.3948 194.215 32.2263 194.122L18.7236 164.529V192.014C19.0439 192.876 19.4822 193.55 20.0385 194.037C20.5948 194.506 21.2185 194.74 21.9096 194.74C22.6008 194.74 23.1908 194.581 23.6796 194.262C23.8651 194.599 23.9578 195.068 23.9578 195.667C23.9578 196.248 23.6965 196.763 23.1739 197.213C22.6513 197.644 21.9771 197.859 21.1511 197.859C20.3251 197.859 19.5665 197.625 18.8753 197.157C18.2685 197.625 17.5689 197.859 16.7766 197.859C16.0012 197.859 15.3353 197.607 14.779 197.101ZM22.2889 162.14C22.1203 162.421 22.0361 162.824 22.0361 163.349C22.0361 164.866 22.6092 166.88 23.7555 169.391L32.9595 189.822C33.0775 189.653 33.1365 189.297 33.1365 188.754C33.1365 187.124 32.437 184.735 31.0378 181.588L22.2889 162.14ZM48.1058 189.85C48.9486 189.494 49.4122 188.267 49.4965 186.169C49.5976 184.07 49.6482 181.166 49.6482 177.456C49.6482 173.747 49.6398 171.283 49.6229 170.065C49.6229 168.829 49.6145 167.836 49.5976 167.086C49.5471 164.876 49.3532 163.545 49.0161 163.096C48.6958 162.627 48.3923 162.318 48.1058 162.168V189.85ZM18.3696 190.215C18.3696 190.365 18.378 190.478 18.3949 190.553L18.3696 190.215ZM15.5376 190.215C15.5207 190.29 15.5123 190.403 15.5123 190.553L15.5376 190.215Z" fill="black"/>
<path d="M81.2049 194.628C79.6709 196.876 77.3699 198 74.3019 198C70.5596 198 67.7529 196.754 65.8817 194.262C65.0726 193.194 64.5163 192.005 64.2128 190.693C64.0443 189.906 63.7493 189.307 63.3278 188.895C62.9064 188.464 62.3838 188.08 61.7601 187.742C62.9738 187.124 63.842 185.962 64.3646 184.257C64.9208 182.459 65.848 181.157 67.146 180.351C68.5451 179.508 70.0876 179.068 71.7733 179.03C73.459 178.974 74.7065 178.908 75.5156 178.834C76.3248 178.759 77.0412 178.637 77.6649 178.468C78.8281 178.168 79.7383 177.616 80.3958 176.81V172.595C80.3958 170.74 80.0502 169.381 79.3591 168.52C78.6848 167.658 77.648 167.227 76.2489 167.227C74.8666 167.227 73.8383 167.517 73.164 168.098C72.5066 168.66 72.1779 169.419 72.1779 170.374C72.1779 171.836 72.8522 172.548 74.2007 172.51C73.931 173.972 73.223 174.702 72.0767 174.702C71.7396 174.702 71.4109 174.637 71.0906 174.506V174.59C71.0906 175.077 71.2929 175.386 71.6974 175.517C71.276 176.229 70.568 176.576 69.5734 176.557C68.5789 176.538 67.8034 175.948 67.2471 174.787C66.9943 174.862 66.6993 174.899 66.3621 174.899C66.0418 174.899 65.6794 174.777 65.2748 174.534C64.8871 174.29 64.5753 173.953 64.3393 173.522C65.1821 172.96 65.6963 172.089 65.8817 170.908C66.084 169.466 67.1207 168.004 68.9919 166.524C71.2507 164.744 74.1333 163.854 77.6396 163.854C83.4554 163.854 87.0038 165.84 88.285 169.812C88.7064 171.143 88.9171 172.716 88.9171 174.534V176.81C88.9171 177.728 89.1194 178.478 89.524 179.058C89.9454 179.639 90.6534 180.117 91.648 180.492C90.586 181.035 89.9033 181.522 89.5998 181.953C89.1447 182.609 88.9171 183.358 88.9171 184.201V192.632C89.406 194.037 90.1055 194.74 91.0158 194.74C91.589 194.74 92.061 194.581 92.4318 194.262C92.6678 194.618 92.7858 195.068 92.7858 195.611C92.7858 196.136 92.5414 196.642 92.0526 197.129C91.5806 197.616 90.8641 197.859 89.9033 197.859C88.9424 197.859 88.049 197.56 87.223 196.96C86.4981 197.56 85.8491 197.859 85.2759 197.859C84.7197 197.859 84.2308 197.794 83.8094 197.663C83.4048 197.55 83.0255 197.363 82.6715 197.101C81.8792 196.52 81.3904 195.696 81.2049 194.628ZM82.7979 189.85C83.7756 189.419 84.2898 187.349 84.3404 183.639C84.3404 182.852 84.3404 181.953 84.3404 180.941C84.3404 179.93 84.3319 179.068 84.3151 178.356C84.3151 177.625 84.3067 176.932 84.2898 176.276C84.2224 173.915 84.0285 172.51 83.7082 172.061C83.3879 171.592 83.0845 171.283 82.7979 171.133V189.85ZM73.4675 187.855C73.4675 188.642 73.5433 189.41 73.695 190.159C73.8467 190.909 74.0743 191.564 74.3777 192.126C75.052 193.307 76.0045 193.897 77.2351 193.897C78.1622 193.897 78.9292 193.475 79.5361 192.632C80.1092 191.808 80.3958 190.749 80.3958 189.457V180.295C79.3169 180.988 77.9346 181.466 76.2489 181.728C74.3946 182.047 73.4675 184.089 73.4675 187.855ZM69.6746 194.178C69.8432 194.047 69.9274 193.878 69.9274 193.672C69.9274 193.391 69.8094 192.998 69.5734 192.492C68.7306 190.768 68.3091 189.354 68.3091 188.248C68.3091 187.143 68.3429 186.346 68.4103 185.859C68.4946 185.372 68.5957 184.96 68.7137 184.623C68.8486 184.267 68.9919 183.958 69.1436 183.695C69.3121 183.433 69.4554 183.199 69.5734 182.993C69.7926 182.562 69.9022 182.271 69.9022 182.122C69.9022 181.953 69.8263 181.812 69.6746 181.7C68.9834 182.056 68.4777 182.478 68.1574 182.965C67.5843 183.827 67.1629 184.941 66.8931 186.309C66.8257 186.702 66.2357 187.18 65.1231 187.742C66.202 188.286 66.792 188.763 66.8931 189.176C67.4663 191.405 68.3934 193.073 69.6746 194.178Z" fill="black"/>
<path d="M117.086 188.81C117.456 188.023 118.139 187.63 119.134 187.63C119.808 187.63 120.331 187.939 120.701 188.557C121.005 189.044 121.157 189.644 121.157 190.356C121.157 191.049 120.996 191.752 120.676 192.464C120.373 193.176 119.96 193.822 119.437 194.403C118.915 194.984 118.308 195.499 117.617 195.948C116.942 196.398 116.217 196.773 115.442 197.073C113.874 197.691 112.239 198 110.536 198C108.834 198 107.224 197.672 105.707 197.016C104.19 196.342 102.883 195.405 101.788 194.206C99.5793 191.789 98.2476 188.548 97.7924 184.482C97.6744 183.564 97.4806 182.909 97.2109 182.515C96.7051 181.822 95.8707 181.157 94.7076 180.52C96.4944 179.62 97.5227 178 97.7924 175.658C98.2307 172.079 99.6636 169.25 102.091 167.171C104.417 165.147 107.249 164.135 110.587 164.135C113.47 164.135 115.897 165.11 117.869 167.058C119.741 168.894 120.676 171.021 120.676 173.438C120.676 174.805 121.106 175.677 121.966 176.051C121.46 176.969 120.752 177.428 119.842 177.428C119.521 177.428 119.226 177.391 118.957 177.316C118.367 178.271 117.515 178.918 116.403 179.255C116.049 179.349 115.712 179.396 115.391 179.396C115.071 179.396 114.692 179.33 114.254 179.199C113.815 179.049 113.512 178.852 113.343 178.609C113.832 178.384 114.119 177.822 114.203 176.923C114.102 176.941 114.009 176.951 113.925 176.951H113.723C112.576 176.951 111.868 176.22 111.599 174.759C112.846 174.759 113.756 174.225 114.329 173.157C114.532 172.782 114.633 172.323 114.633 171.78C114.633 170.581 114.287 169.644 113.596 168.969C112.905 168.276 111.944 167.929 110.713 167.929C107.865 167.929 106.44 169.972 106.44 174.056V187.714C106.44 190.899 107.536 192.913 109.727 193.756C110.368 194.019 111.093 194.15 111.902 194.15C112.711 194.15 113.444 194.037 114.102 193.813C114.776 193.588 115.341 193.279 115.796 192.885C116.723 192.08 117.187 191.058 117.187 189.822C117.187 189.447 117.153 189.11 117.086 188.81ZM102.217 189.85C102.453 189.644 102.571 189.41 102.571 189.147C102.571 188.735 102.496 188.211 102.344 187.574C101.653 184.632 101.307 182.59 101.307 181.447C101.307 180.286 101.341 179.386 101.408 178.749C101.476 178.093 101.568 177.438 101.686 176.782C101.889 175.508 102.108 174.384 102.344 173.41C102.496 172.773 102.571 172.342 102.571 172.117C102.571 171.667 102.453 171.339 102.217 171.133C101.509 172.07 100.97 173.325 100.599 174.899C100.228 176.473 99.9249 177.859 99.6889 179.058C99.6046 179.545 99.1073 180.023 98.197 180.492C99.1073 180.96 99.6046 181.438 99.6889 181.925C100.313 185.091 100.827 187.105 101.231 187.967C101.636 188.829 101.965 189.457 102.217 189.85Z" fill="black"/>
<path d="M129.096 196.96C128.321 197.56 127.436 197.859 126.441 197.859C125.464 197.859 124.73 197.616 124.241 197.129C123.769 196.642 123.533 196.173 123.533 195.724C123.533 195.105 123.651 194.618 123.887 194.262C124.258 194.581 124.73 194.74 125.303 194.74C126.281 194.74 126.981 194.112 127.402 192.857V184.201C127.402 183.264 127.242 182.627 126.922 182.29C126.534 181.841 125.666 181.25 124.317 180.52C125.497 179.92 126.247 179.442 126.568 179.086C127.124 178.468 127.402 177.709 127.402 176.81V160.904C127.402 158.768 126.618 157.7 125.051 157.7C124.477 157.7 124.005 157.859 123.635 158.178C123.399 157.822 123.281 157.456 123.281 157.082C123.281 156.688 123.365 156.313 123.533 155.957C123.719 155.601 123.989 155.274 124.343 154.974C125.152 154.337 126.163 154.018 127.377 154.018C128.591 154.018 129.535 154.103 130.209 154.271C131.136 152.978 132.181 152.332 133.344 152.332C135.081 152.332 135.949 153.344 135.949 155.367V169.222C137.584 165.831 140.256 164.135 143.964 164.135C148.212 164.135 150.918 166.224 152.081 170.403C152.452 171.733 152.637 173.241 152.637 174.927V176.81C152.637 177.691 152.814 178.328 153.168 178.721C153.691 179.302 154.542 179.892 155.722 180.492C154.441 181.185 153.649 181.719 153.345 182.094C152.873 182.674 152.637 183.377 152.637 184.201V192.998C152.958 194.159 153.657 194.74 154.736 194.74C155.309 194.74 155.781 194.581 156.152 194.262C156.338 194.543 156.43 194.955 156.43 195.499C156.43 196.042 156.203 196.576 155.748 197.101C155.309 197.607 154.601 197.859 153.624 197.859C152.646 197.859 151.744 197.56 150.918 196.96C150.159 197.56 149.3 197.859 148.339 197.859C147.395 197.859 146.569 197.578 145.861 197.016C145.203 197.578 144.462 197.859 143.636 197.859C142.827 197.859 142.178 197.625 141.689 197.157C141.2 196.689 140.955 196.014 140.955 195.133C140.955 194.721 141.082 194.393 141.335 194.15C141.722 194.487 142.11 194.656 142.498 194.656C143.24 194.656 143.771 194.197 144.091 193.279V176.529C144.091 172.876 143.29 170.768 141.689 170.206C141.183 170.018 140.635 169.925 140.045 169.925C138.292 169.925 137.07 170.955 136.379 173.016C136.159 173.653 136.016 174.346 135.949 175.096V193.279C136.269 194.197 136.8 194.656 137.542 194.656C137.929 194.656 138.317 194.487 138.705 194.15C138.958 194.393 139.084 194.843 139.084 195.499C139.084 196.136 138.84 196.689 138.351 197.157C137.862 197.625 137.205 197.859 136.379 197.859C135.553 197.859 134.811 197.578 134.153 197.016C133.462 197.578 132.645 197.859 131.701 197.859C130.757 197.859 129.889 197.56 129.096 196.96ZM129.779 189.822C130.538 189.279 130.984 188.089 131.119 186.253C131.17 185.447 131.203 184.548 131.22 183.555C131.237 182.562 131.246 181.859 131.246 181.447C131.262 181.016 131.271 180.698 131.271 180.492V177.962C131.271 177.269 131.271 176.482 131.271 175.602L131.22 172.848C131.187 167.883 131.111 165.119 130.993 164.557C130.757 163.377 130.352 162.58 129.779 162.168V171.639C129.779 175.517 129.737 177.681 129.653 178.131C129.585 178.562 129.526 178.88 129.476 179.086C129.324 179.667 128.751 180.145 127.756 180.52C128.768 180.913 129.341 181.382 129.476 181.925C129.678 182.824 129.779 184.848 129.779 187.995V189.822ZM146.493 189.85C147.336 189.494 147.808 188.267 147.909 186.169C147.993 184.07 148.035 182.15 148.035 180.407C148.035 178.646 147.985 177.213 147.884 176.107C147.783 175.002 147.614 174.131 147.378 173.494C147.159 172.838 146.872 172.351 146.518 172.033C146.164 171.695 145.734 171.386 145.229 171.105C145.869 172.791 146.24 174.328 146.341 175.714C146.442 177.1 146.493 178.44 146.493 179.733V189.85Z" fill="black"/>
<path d="M166.545 160.117C165.685 160.117 164.85 159.864 164.041 159.358C163.249 158.852 162.642 158.178 162.221 157.334C161.766 156.473 161.159 155.817 160.4 155.367C160.164 155.236 159.894 155.096 159.591 154.946L160.451 154.356C161.26 153.793 161.858 153.11 162.246 152.304C162.634 151.498 163.215 150.871 163.991 150.421C164.783 149.953 165.634 149.718 166.545 149.718C168.433 149.718 169.798 150.599 170.641 152.36C171.214 153.522 172.099 154.384 173.296 154.946C173.043 155.114 172.79 155.264 172.537 155.395C172.301 155.526 172.074 155.676 171.855 155.845C171.366 156.22 170.928 156.772 170.54 157.503C170.169 158.234 169.621 158.852 168.896 159.358C168.188 159.864 167.404 160.117 166.545 160.117ZM165.204 156.688C165.103 156.482 165.019 156.248 164.952 155.986C164.901 155.704 164.876 155.217 164.876 154.524C164.876 153.831 165.196 152.95 165.837 151.882C165.213 151.882 164.775 152.014 164.522 152.276C164.269 152.519 164.075 152.735 163.94 152.922C163.822 153.091 163.713 153.269 163.611 153.456C163.527 153.625 163.418 153.812 163.283 154.018C162.962 154.524 162.701 154.833 162.499 154.946C162.769 155.114 163.013 155.386 163.232 155.761C163.468 156.117 163.738 156.491 164.041 156.885C164.496 157.503 165.095 157.812 165.837 157.812C165.735 157.606 165.626 157.419 165.508 157.25C165.407 157.063 165.306 156.875 165.204 156.688ZM164.016 196.96C163.241 197.56 162.356 197.859 161.361 197.859C160.383 197.859 159.65 197.616 159.161 197.129C158.689 196.642 158.453 196.173 158.453 195.724C158.453 195.105 158.571 194.618 158.807 194.262C159.178 194.581 159.726 194.74 160.451 194.74C161.176 194.74 161.799 194.215 162.322 193.166V184.201C162.322 183.377 162.17 182.777 161.867 182.403C161.378 181.841 160.501 181.213 159.237 180.52C160.417 179.92 161.167 179.442 161.487 179.086C162.044 178.468 162.322 177.709 162.322 176.81V172.707C162.322 171.114 161.833 170.253 160.855 170.121C160.569 170.084 160.206 170.065 159.768 170.065C159.33 170.065 158.925 170.225 158.554 170.543C158.318 170.187 158.2 169.822 158.2 169.447C158.2 169.054 158.285 168.623 158.453 168.154C158.639 167.667 158.917 167.208 159.288 166.777C160.164 165.765 161.176 165.26 162.322 165.26C163.468 165.26 164.505 165.484 165.432 165.934C166.258 164.735 167.202 164.135 168.264 164.135C170 164.135 170.869 165.147 170.869 167.171V176.81C170.869 177.709 171.046 178.356 171.4 178.749C171.922 179.33 172.773 179.92 173.953 180.52C172.689 181.213 171.897 181.738 171.577 182.094C171.105 182.674 170.869 183.377 170.869 184.201V193.251C171.425 194.244 172.057 194.74 172.765 194.74C173.473 194.74 174.012 194.581 174.383 194.262C174.619 194.618 174.737 195.068 174.737 195.611C174.737 196.136 174.493 196.642 174.004 197.129C173.532 197.616 172.816 197.859 171.855 197.859C170.894 197.859 170 197.56 169.174 196.96C168.483 197.56 167.649 197.859 166.671 197.859C165.693 197.859 164.808 197.56 164.016 196.96ZM166.191 183.639C166.207 183.002 166.216 182.468 166.216 182.037C166.233 181.606 166.241 181.26 166.241 180.997V180.239C166.241 179.958 166.233 179.592 166.216 179.143C166.216 178.693 166.207 178.197 166.191 177.653C166.191 177.11 166.182 176.576 166.165 176.051C166.098 174.759 166.014 173.869 165.912 173.381C165.71 172.295 165.322 171.545 164.749 171.133V172.96C164.749 176.126 164.682 177.99 164.547 178.552C164.429 179.096 164.227 179.508 163.94 179.789C163.67 180.051 163.266 180.286 162.726 180.492C163.738 180.885 164.311 181.363 164.446 181.925C164.648 182.824 164.749 184.857 164.749 188.023V189.85C165.525 189.288 165.963 188.136 166.064 186.393C166.148 185.194 166.191 184.276 166.191 183.639Z" fill="black"/>
<path d="M182.197 196.96C181.421 197.56 180.536 197.859 179.542 197.859C178.547 197.859 177.822 197.607 177.367 197.101C176.929 196.576 176.71 196.08 176.71 195.611C176.71 194.993 176.802 194.543 176.988 194.262C177.359 194.581 177.831 194.74 178.404 194.74C179.483 194.74 180.182 194.159 180.502 192.998V184.257C180.502 183.433 180.342 182.834 180.022 182.459C179.533 181.841 178.665 181.194 177.418 180.52C178.598 179.92 179.348 179.442 179.668 179.086C180.224 178.468 180.502 177.709 180.502 176.81V172.707C180.502 171.114 180.014 170.253 179.036 170.121C178.749 170.084 178.387 170.065 177.949 170.065C177.51 170.065 177.106 170.225 176.735 170.543C176.499 170.187 176.381 169.822 176.381 169.447C176.381 169.054 176.465 168.623 176.634 168.154C176.819 167.667 177.089 167.208 177.443 166.777C178.336 165.765 179.365 165.26 180.528 165.26C181.708 165.26 182.685 165.466 183.461 165.878C184.388 164.716 185.332 164.135 186.293 164.135C187.254 164.135 187.92 164.388 188.29 164.894C188.661 165.381 188.847 166.14 188.847 167.171V169.812C189.723 168.07 190.92 166.693 192.437 165.681C193.954 164.651 195.564 164.135 197.267 164.135C198.97 164.135 200.335 164.388 201.363 164.894C202.408 165.381 203.268 166.084 203.942 167.002C205.257 168.819 205.915 171.461 205.915 174.927V176.782C205.915 177.681 206.092 178.328 206.446 178.721C206.968 179.321 207.82 179.92 209 180.52C207.735 181.213 206.943 181.738 206.623 182.094C206.151 182.674 205.915 183.377 205.915 184.201V192.998C206.235 194.159 206.935 194.74 208.013 194.74C208.587 194.74 209.059 194.581 209.429 194.262C209.615 194.543 209.708 194.955 209.708 195.499C209.708 196.042 209.48 196.576 209.025 197.101C208.587 197.607 207.904 197.859 206.977 197.859C206.05 197.859 205.207 197.569 204.448 196.988C203.774 197.569 202.982 197.859 202.071 197.859C201.178 197.859 200.377 197.578 199.669 197.016C198.927 197.578 198.135 197.859 197.292 197.859C196.449 197.859 195.783 197.625 195.295 197.157C194.806 196.689 194.561 196.014 194.561 195.133C194.561 194.721 194.688 194.393 194.941 194.15C195.328 194.487 195.716 194.656 196.104 194.656C196.845 194.656 197.377 194.197 197.697 193.279V176.529C197.697 172.894 196.896 170.787 195.295 170.206C194.772 170.018 194.207 169.925 193.6 169.925C192.994 169.925 192.429 170.065 191.906 170.346C191.384 170.609 190.912 170.983 190.49 171.47C189.563 172.557 189.015 173.85 188.847 175.349V193.279C189.167 194.197 189.698 194.656 190.44 194.656C190.827 194.656 191.215 194.487 191.603 194.15C191.856 194.393 191.982 194.843 191.982 195.499C191.982 196.136 191.738 196.689 191.249 197.157C190.76 197.625 190.111 197.859 189.302 197.859C188.51 197.859 187.785 197.578 187.127 197.016C186.487 197.578 185.703 197.859 184.776 197.859C183.849 197.859 182.989 197.56 182.197 196.96ZM200.124 189.85C200.967 189.494 201.431 188.267 201.515 186.169C201.616 184.07 201.667 182.094 201.667 180.239C201.667 178.384 201.599 176.857 201.464 175.658C201.33 174.44 201.136 173.494 200.883 172.819C200.63 172.126 200.327 171.63 199.973 171.33C199.635 171.011 199.265 170.74 198.86 170.515C199.501 172.201 199.871 173.737 199.973 175.124C200.074 176.51 200.124 177.85 200.124 179.143V189.85ZM184.371 183.639C184.388 183.021 184.396 182.506 184.396 182.094C184.413 181.663 184.422 181.316 184.422 181.054C184.422 180.791 184.422 180.529 184.422 180.267C184.422 179.986 184.413 179.62 184.396 179.171C184.396 178.721 184.388 178.225 184.371 177.681C184.371 177.138 184.354 176.604 184.321 176.079C184.27 174.787 184.194 173.897 184.093 173.41C183.891 172.323 183.503 171.573 182.93 171.161V172.988C182.93 176.136 182.862 177.99 182.728 178.552C182.61 179.096 182.407 179.508 182.121 179.789C181.851 180.07 181.446 180.314 180.907 180.52C181.918 180.913 182.492 181.382 182.626 181.925C182.829 182.824 182.93 184.848 182.93 187.995V189.822C183.705 189.26 184.152 188.117 184.27 186.393C184.337 185.176 184.371 184.257 184.371 183.639Z" fill="black"/>
<path d="M234.614 188.81C234.985 188.023 235.668 187.63 236.662 187.63C237.337 187.63 237.859 187.939 238.23 188.557C238.533 189.044 238.685 189.644 238.685 190.356C238.685 191.049 238.525 191.752 238.205 192.464C237.884 193.176 237.446 193.822 236.89 194.403C236.334 194.984 235.693 195.499 234.968 195.948C234.26 196.398 233.502 196.773 232.692 197.073C231.024 197.691 229.287 198 227.484 198C225.68 198 223.986 197.672 222.401 197.016C220.833 196.342 219.485 195.405 218.355 194.206C216.147 191.845 214.798 188.604 214.31 184.482C214.192 183.564 213.998 182.909 213.728 182.515C213.222 181.822 212.388 181.157 211.225 180.52C212.691 179.789 213.627 178.618 214.031 177.007C214.149 176.557 214.242 176.108 214.31 175.658C214.731 172.36 216.231 169.55 218.81 167.227C221.305 164.979 224.095 163.854 227.18 163.854C230.383 163.854 233.156 165.11 235.499 167.62C237.927 170.206 239.14 173.381 239.14 177.147C239.14 177.278 239.132 177.41 239.115 177.541C239.115 177.672 239.123 177.794 239.14 177.906C239.174 178.15 239.309 178.29 239.545 178.328C239.848 178.759 240 179.218 240 179.705C240 180.829 239.461 181.494 238.382 181.7C238.112 181.756 237.691 181.831 237.117 181.925L222.856 184.454V187.152C222.856 189.325 223.446 191.049 224.626 192.323C225.739 193.541 227.146 194.15 228.849 194.15C230.653 194.15 232.102 193.738 233.198 192.913C234.226 192.126 234.741 191.096 234.741 189.822C234.741 189.522 234.698 189.185 234.614 188.81ZM230.189 179.733V171.864C230.189 170.627 229.97 169.719 229.532 169.138C228.756 168.145 227.989 167.648 227.231 167.648C226.472 167.648 225.84 167.78 225.334 168.042C224.828 168.285 224.39 168.679 224.019 169.222C223.244 170.365 222.856 172.145 222.856 174.562V181.054L230.189 179.733ZM233.931 179.03V178.159C233.931 174.674 233.67 172.566 233.148 171.836C232.912 171.517 232.65 171.283 232.364 171.133V179.311L233.931 179.03ZM218.735 189.85C218.971 189.644 219.089 189.41 219.089 189.147C219.089 188.735 219.013 188.211 218.861 187.574C218.17 184.632 217.824 182.59 217.824 181.447C217.824 180.286 217.858 179.386 217.925 178.749C217.993 178.093 218.086 177.438 218.204 176.782C218.406 175.508 218.625 174.384 218.861 173.41C219.013 172.773 219.089 172.342 219.089 172.117C219.089 171.667 218.971 171.339 218.735 171.133C218.027 172.07 217.487 173.325 217.116 174.899C216.745 176.473 216.442 177.859 216.206 179.058C216.122 179.564 215.624 180.051 214.714 180.52C215.624 180.988 216.122 181.457 216.206 181.925C216.83 185.091 217.344 187.105 217.748 187.967C218.153 188.829 218.482 189.457 218.735 189.85Z" fill="black"/>
<path d="M57.9445 52.7888C57.2971 52.7888 56.6397 52.8563 55.9722 52.9912C55.3249 53.126 54.6775 53.2834 54.0302 53.4633C53.3829 53.6207 52.7356 53.7668 52.0883 53.9017C51.4409 54.0366 50.7835 54.104 50.116 54.104C49.9137 54.104 49.7013 54.0816 49.4788 54.0366C49.2765 53.9691 49.1753 53.7668 49.1753 53.4296C49.1753 53.2047 49.2563 52.9799 49.4181 52.7551C49.6001 52.5078 49.7923 52.3729 49.9946 52.3504L58.1265 51.0352C58.1468 50.9452 58.1771 50.8103 58.2176 50.6305C58.258 50.4281 58.3086 50.237 58.3693 50.0572C58.4502 49.8548 58.5513 49.6862 58.6727 49.5513C58.7941 49.3939 58.9357 49.3152 59.0975 49.3152C59.3402 49.3152 59.5324 49.3827 59.674 49.5176C59.8156 49.6525 59.937 49.8099 60.0381 49.9897C60.1393 50.1471 60.2303 50.2932 60.3112 50.4281C60.3921 50.563 60.4933 50.6305 60.6146 50.6305H60.8574C61.0597 50.608 61.3833 50.5743 61.8284 50.5293C62.2734 50.4619 62.7791 50.3944 63.3455 50.327C63.9322 50.2595 64.5491 50.1921 65.1964 50.1246C65.8438 50.0347 66.4607 49.9672 67.0474 49.9223C67.634 49.8548 68.1498 49.7986 68.5949 49.7536C69.0399 49.6862 69.3635 49.63 69.5658 49.585C69.6265 49.585 69.7681 49.585 69.9906 49.585C70.2334 49.5625 70.4053 49.5513 70.5065 49.5513C70.5065 49.9785 70.2941 50.3382 69.8693 50.6305C69.4647 50.9003 68.9387 51.1363 68.2914 51.3387C67.6643 51.5185 66.9563 51.6647 66.1674 51.7771C65.3987 51.867 64.6402 51.9457 63.8917 52.0132C63.1635 52.0806 62.4858 52.1368 61.8587 52.1818C61.2519 52.2267 60.7866 52.2829 60.4629 52.3504C60.382 53.9467 60.4124 55.6104 60.554 57.3415C60.7158 59.0727 60.908 60.8151 61.1305 62.5688C61.3732 64.3224 61.5957 66.0648 61.798 67.796C62.0003 69.5272 62.1015 71.1796 62.1015 72.7534C62.1824 73.0682 62.2127 73.3155 62.1925 73.4953C62.1925 73.6752 62.1419 73.7989 62.0408 73.8663C61.9396 73.9338 61.7879 73.9675 61.5856 73.9675C61.3833 73.9675 61.1406 73.9562 60.8574 73.9338C60.6551 73.1244 60.473 72.1801 60.3112 71.1009C60.1696 69.9993 60.0381 68.8302 59.9168 67.5936C59.7954 66.3346 59.674 65.0419 59.5526 63.7154C59.4515 62.3889 59.3504 61.0737 59.2492 59.7697C59.1481 58.4657 59.0368 57.2179 58.9154 56.0263C58.7941 54.8347 58.6525 53.7556 58.4906 52.7888H57.9445Z" fill="black"/>
<path d="M79.0025 59.1964C78.254 58.8816 77.5359 59.0053 76.8482 59.5673C76.1604 60.1294 75.5029 60.9275 74.8759 61.9617C74.2488 62.9735 73.652 64.1313 73.0856 65.4353C72.5192 66.7393 71.9933 67.9759 71.5078 69.145C71.0223 70.314 70.5773 71.3145 70.1727 72.1464C69.7883 72.9782 69.4344 73.4391 69.1107 73.5291C68.8679 73.5291 68.6758 73.4841 68.5342 73.3942C68.4128 73.2818 68.3521 73.0232 68.3521 72.6185V48.9105C68.3521 48.7082 68.4229 48.5845 68.5645 48.5396C68.7263 48.4946 68.8983 48.4834 69.0803 48.5059C69.2624 48.5283 69.4343 48.5845 69.5962 48.6745C69.758 48.7419 69.8592 48.8206 69.8996 48.9105L70.2941 67.8972C70.5166 67.4925 70.7189 66.9304 70.9009 66.211C71.1032 65.469 71.3358 64.6821 71.5988 63.8503C71.8618 62.9959 72.1652 62.1528 72.5091 61.321C72.8732 60.4666 73.3183 59.7022 73.8442 59.0277C74.3701 58.3533 75.0073 57.8362 75.7558 57.4764C76.5245 57.0942 77.4247 56.9593 78.4563 57.0718C79.1441 57.0718 79.7004 57.3191 80.1252 57.8137C80.55 58.2858 80.7725 58.9153 80.7928 59.7022L81.0962 73.1581C81.0962 73.248 81.0759 73.3829 81.0355 73.5628C81.0153 73.7202 80.9344 73.8551 80.7928 73.9675C80.6714 74.1024 80.4893 74.1811 80.2466 74.2036C80.0241 74.2485 79.7307 74.1923 79.3666 74.0349L79.0025 59.1964Z" fill="black"/>
<path d="M83.4933 66.6494C83.3921 66.6719 83.2404 66.7056 83.0381 66.7505C82.8358 66.7955 82.6234 66.8068 82.4009 66.7843C82.1784 66.7618 81.9862 66.6943 81.8244 66.5819C81.6424 66.4695 81.5513 66.2784 81.5513 66.0086C81.5513 65.8512 81.5817 65.7388 81.6424 65.6714C81.703 65.6039 81.8042 65.5028 81.9458 65.3679C82.3908 64.9632 82.765 64.4461 83.0685 63.8166C83.3921 63.1646 83.6854 62.4788 83.9484 61.7594C84.2114 61.0175 84.4845 60.2868 84.7677 59.5673C85.0711 58.8254 85.415 58.1622 85.7993 57.5776C86.1837 56.9931 86.6591 56.5209 87.2255 56.1612C87.7919 55.8015 88.4898 55.6329 89.3191 55.6553C89.663 55.6553 90.0474 55.7453 90.4722 55.9251C90.897 56.105 91.2914 56.3523 91.6555 56.6671C92.0197 56.9593 92.3231 57.3191 92.5658 57.7462C92.8086 58.1734 92.93 58.6455 92.93 59.1626C93.0311 59.3425 92.93 59.6011 92.6265 59.9383C92.3433 60.2755 91.9489 60.6465 91.4431 61.0512C90.9374 61.4334 90.3609 61.8381 89.7136 62.2653C89.0865 62.6699 88.4796 63.0521 87.893 63.4119C87.3064 63.7716 86.7906 64.0863 86.3455 64.3561C85.9005 64.6259 85.6072 64.8283 85.4656 64.9632C85.3644 65.188 85.2835 65.4466 85.2228 65.7388C85.1621 66.0311 85.1116 66.3121 85.0711 66.5819C85.0509 66.8292 85.0307 67.0653 85.0104 67.2901C85.0104 67.4925 85.0104 67.6499 85.0104 67.7623C85.0104 68.1894 84.9902 68.6616 84.9497 69.1787C84.9295 69.6958 84.9497 70.1904 85.0104 70.6625C85.0913 71.1122 85.2633 71.4944 85.5263 71.8091C85.7892 72.1014 86.2343 72.2476 86.8614 72.2476C87.5289 72.2476 88.156 72.0677 88.7426 71.708C89.3292 71.3258 89.8754 70.8649 90.3811 70.3253C90.8869 69.7857 91.342 69.2012 91.7466 68.5716C92.1714 67.9421 92.5456 67.3576 92.8693 66.818C93.2132 66.2559 93.5166 65.795 93.7796 65.4353C94.0425 65.0756 94.265 64.8957 94.4471 64.8957C94.6494 64.8957 94.8618 64.9407 95.0843 65.0306C95.3271 65.0981 95.4484 65.2779 95.4484 65.5702C95.4484 65.9749 95.2967 66.4583 94.9933 67.0203C94.7101 67.5824 94.3257 68.1782 93.8402 68.8077C93.375 69.4372 92.8288 70.0667 92.2017 70.6963C91.5949 71.3033 90.9779 71.8541 90.3508 72.3487C89.7237 72.8209 89.1067 73.2143 88.4999 73.5291C87.893 73.8213 87.357 73.9675 86.8917 73.9675C85.9814 73.9675 85.2936 73.7202 84.8284 73.2256C84.3631 72.7309 84.0293 72.1127 83.827 71.3707C83.645 70.6288 83.5439 69.8419 83.5236 69.0101C83.5236 68.1557 83.5135 67.3688 83.4933 66.6494ZM89.0764 57.5439C88.7325 57.5439 88.3684 57.735 87.984 58.1172C87.5997 58.4769 87.2356 58.9266 86.8917 59.4662C86.568 59.9833 86.2949 60.5228 86.0724 61.0849C85.8701 61.6245 85.769 62.0742 85.769 62.4339C86.0724 62.4339 86.5074 62.3102 87.0738 62.0629C87.6604 61.7931 88.2369 61.4671 88.8033 61.0849C89.3697 60.7027 89.8653 60.298 90.2901 59.8708C90.7149 59.4437 90.9273 59.039 90.9273 58.6568C90.9273 58.4544 90.8565 58.2858 90.7149 58.1509C90.5733 58.016 90.4014 57.9036 90.1991 57.8137C90.017 57.7238 89.8249 57.6563 89.6226 57.6113C89.4203 57.5664 89.2382 57.5439 89.0764 57.5439Z" fill="black"/>
<path d="M110.954 73.0569C111.014 72.7422 111.065 72.3375 111.105 71.8429C111.146 71.3483 111.196 70.6963 111.257 69.8869C111.338 69.0775 111.419 68.077 111.5 66.8854C111.601 65.6939 111.733 64.2437 111.894 62.535C112.056 60.8264 112.238 58.8254 112.441 56.5322C112.663 54.2165 112.946 51.5298 113.29 48.4721C113.31 48.2473 113.401 48.1124 113.563 48.0674C113.745 48.0225 113.907 48 114.049 48C114.271 48 114.453 48.0899 114.595 48.2698C114.736 48.4497 114.858 48.652 114.959 48.8768C115.08 49.1017 115.192 49.3377 115.293 49.585C115.394 49.8323 115.505 50.0347 115.627 50.1921C115.829 50.7092 116.031 51.305 116.233 51.9794C116.456 52.6539 116.689 53.3734 116.931 54.1378C117.174 54.9022 117.417 55.6778 117.66 56.4647C117.902 57.2291 118.145 57.9823 118.388 58.7242C118.63 59.4437 118.853 60.1182 119.055 60.7477C119.278 61.3547 119.48 61.8606 119.662 62.2653C119.885 62.2428 120.198 62.1528 120.603 61.9955C121.007 61.8156 121.442 61.647 121.908 61.4896C122.373 61.3322 122.828 61.2086 123.273 61.1186C123.718 61.0287 124.092 61.0287 124.396 61.1186C124.699 61.1861 124.891 61.3772 124.972 61.6919C125.073 62.0067 125.003 62.5013 124.76 63.1758C124.618 63.1758 124.487 63.1533 124.365 63.1084C124.244 63.0409 124.123 62.9847 124.001 62.9397C123.88 62.8723 123.748 62.8161 123.607 62.7711C123.485 62.7037 123.344 62.6699 123.182 62.6699C123.081 62.6699 122.848 62.7374 122.484 62.8723C122.14 62.9847 121.766 63.1196 121.361 63.277C120.957 63.4119 120.603 63.558 120.299 63.7154C119.996 63.8503 119.844 63.9515 119.844 64.0189L121.938 73.1581L121.149 74.4396C120.805 73.7876 120.512 73.0457 120.269 72.2138C120.047 71.3595 119.834 70.5164 119.632 69.6845C119.43 68.8302 119.217 68.0433 118.995 67.3239C118.792 66.5819 118.529 65.9637 118.206 65.469C117.781 65.6939 117.275 65.885 116.689 66.0423C116.102 66.1997 115.535 66.4021 114.989 66.6494C114.443 66.8742 113.968 67.189 113.563 67.5936C113.179 67.9759 112.946 68.5042 112.865 69.1787C112.825 69.4485 112.784 69.8082 112.744 70.2578C112.724 70.7075 112.693 71.1347 112.653 71.5394C112.592 72.034 112.542 72.5398 112.501 73.0569H110.954ZM114.443 53.1935L114.382 53.7668C114.362 54.149 114.332 54.5987 114.291 55.1158C114.251 55.6104 114.2 56.1275 114.14 56.6671C114.099 57.1842 114.069 57.6226 114.049 57.9823C113.948 59.2413 113.836 60.4891 113.715 61.7257C113.614 62.9397 113.563 64.1875 113.563 65.469C113.948 65.469 114.352 65.4128 114.777 65.3004C115.222 65.188 115.647 65.0419 116.051 64.862C116.456 64.6597 116.82 64.4236 117.144 64.1538C117.488 63.8615 117.751 63.5355 117.933 63.1758C117.771 62.3889 117.589 61.5795 117.386 60.7477C117.204 59.8933 117.002 59.039 116.78 58.1846C116.557 57.3078 116.314 56.4535 116.051 55.6216C115.788 54.7898 115.505 53.9804 115.202 53.1935C115.182 53.171 115.111 53.126 114.989 53.0586C114.868 52.9687 114.686 53.0136 114.443 53.1935Z" fill="black"/>
<path d="M124.305 73.8326C124.244 73.2031 124.193 72.3487 124.153 71.2696C124.112 70.1904 124.072 69.0213 124.032 67.7623C123.991 66.4808 123.941 65.1543 123.88 63.7828C123.839 62.4114 123.789 61.1074 123.728 59.8708C123.667 58.6343 123.587 57.5102 123.485 56.4984C123.404 55.4867 123.313 54.6774 123.212 54.0703C123.212 53.6207 123.303 53.3621 123.485 53.2947C123.667 53.2047 123.9 53.1598 124.183 53.1598C124.224 53.1598 124.315 53.1598 124.456 53.1598C124.598 53.1598 124.699 53.171 124.76 53.1935C124.942 53.868 125.053 54.7448 125.094 55.824C125.154 56.8807 125.195 58.0385 125.215 59.2975C125.255 60.5566 125.286 61.8606 125.306 63.2095C125.346 64.5585 125.417 65.84 125.518 67.0541C125.802 65.2779 126.034 63.8053 126.216 62.6362C126.419 61.4671 126.601 60.5341 126.762 59.8371C126.944 59.1177 127.106 58.5893 127.248 58.2521C127.41 57.8924 127.582 57.6563 127.764 57.5439C127.966 57.4315 128.178 57.3865 128.401 57.409C128.644 57.409 128.927 57.409 129.251 57.409C129.615 57.409 129.908 57.5664 130.13 57.8811C130.373 58.1959 130.555 58.6006 130.677 59.0952C130.818 59.5898 130.919 60.1294 130.98 60.7139C131.061 61.2985 131.132 61.8718 131.193 62.4339C131.253 62.9735 131.314 63.4681 131.375 63.9177C131.455 64.3674 131.577 64.6821 131.739 64.862C132.244 63.1983 132.679 61.8381 133.043 60.7814C133.408 59.7247 133.721 58.8929 133.984 58.2858C134.247 57.6563 134.48 57.2067 134.682 56.9369C134.884 56.6671 135.066 56.5097 135.228 56.4647C135.39 56.3973 135.532 56.386 135.653 56.431C135.795 56.476 135.936 56.4984 136.078 56.4984C136.624 56.4984 137.039 56.8132 137.322 57.4427C137.645 58.4544 137.868 59.4212 137.989 60.343C138.111 61.2423 138.182 62.1191 138.202 62.9735C138.222 63.8053 138.222 64.6035 138.202 65.3679C138.202 66.1323 138.222 66.8742 138.262 67.5936C138.323 68.3131 138.434 69.0213 138.596 69.7183C138.778 70.4152 139.082 71.1009 139.506 71.7754C139.345 72.1351 139.183 72.3825 139.021 72.5174C138.859 72.6298 138.637 72.686 138.353 72.686C138.111 72.686 137.898 72.596 137.716 72.4162C137.534 72.2138 137.382 71.9778 137.261 71.708C137.14 71.4157 137.039 71.1234 136.958 70.8312C136.897 70.5389 136.836 70.2803 136.776 70.0555C136.695 66.8405 136.563 64.3786 136.381 62.6699C136.219 60.9388 135.966 60.0282 135.623 59.9383C135.279 59.8484 134.834 60.6015 134.287 62.1978C133.762 63.7716 133.104 66.2447 132.315 69.6171C132.255 69.7295 132.163 69.7969 132.042 69.8194C131.921 69.8419 131.789 69.8532 131.648 69.8532C131.526 69.8532 131.395 69.8532 131.253 69.8532C131.132 69.8307 131.01 69.8307 130.889 69.8532C130.383 66.5482 129.959 64.1763 129.615 62.7374C129.291 61.276 128.957 60.7139 128.613 61.0512C128.269 61.3884 127.885 62.6025 127.46 64.6934C127.036 66.7618 126.489 69.6733 125.822 73.4279L124.305 73.8326Z" fill="black"/>
<path d="M149.702 73.0569C149.601 72.4724 149.51 71.7754 149.429 70.966C149.368 70.1342 149.297 69.3023 149.216 68.4705C149.135 67.6161 149.034 66.818 148.913 66.0761C148.812 65.3341 148.65 64.7271 148.427 64.255C147.396 66.5932 146.485 68.4367 145.696 69.7857C144.908 71.1122 144.21 72.0677 143.603 72.6522C143.016 73.2143 142.521 73.4841 142.116 73.4616C141.711 73.4391 141.378 73.2368 141.115 72.8546C140.852 72.4724 140.66 71.989 140.538 71.4045C140.437 70.7974 140.366 70.2354 140.326 69.7183C140.326 69.2236 140.427 68.5267 140.629 67.6274C140.831 66.7281 141.105 65.7501 141.448 64.6934C141.792 63.6142 142.197 62.5238 142.662 61.4222C143.148 60.3205 143.663 59.32 144.21 58.4207C144.756 57.5214 145.322 56.7795 145.909 56.1949C146.495 55.6104 147.082 55.3181 147.669 55.3181C148.539 55.1607 149.176 55.3743 149.58 55.9589C150.005 56.5209 150.086 57.4764 149.823 58.8254C149.823 60.3093 149.874 61.5795 149.975 62.6362C150.096 63.6929 150.218 64.7046 150.339 65.6714C150.481 66.6381 150.602 67.6499 150.703 68.7065C150.824 69.7632 150.885 71.0335 150.885 72.5174C150.885 72.7871 150.855 73.0232 150.794 73.2256C150.754 73.4054 150.511 73.4953 150.066 73.4953C150.005 73.4953 149.924 73.4391 149.823 73.3267C149.742 73.2143 149.702 73.1244 149.702 73.0569ZM148.063 57.9823C147.841 57.6226 147.537 57.5889 147.153 57.8811C146.769 58.1734 146.364 58.6568 145.939 59.3313C145.514 60.0057 145.079 60.8151 144.634 61.7594C144.189 62.7037 143.775 63.6592 143.39 64.6259C143.006 65.5927 142.672 66.5145 142.389 67.3913C142.106 68.2456 141.914 68.9538 141.813 69.5159C141.813 70.3253 141.924 70.7862 142.146 70.8986C142.369 70.9885 142.642 70.8536 142.966 70.4939C143.289 70.1342 143.653 69.6171 144.058 68.9426C144.483 68.2681 144.887 67.5487 145.272 66.7843C145.676 66.0199 146.05 65.2779 146.394 64.5585C146.758 63.839 147.042 63.2545 147.244 62.8048C147.426 62.3327 147.568 61.8943 147.669 61.4896C147.77 61.0849 147.851 60.7027 147.911 60.343C147.992 59.9608 148.033 59.5786 148.033 59.1964C148.053 58.8142 148.063 58.4095 148.063 57.9823Z" fill="black"/>
<path d="M156.59 74.271C156.488 73.7539 156.519 73.0907 156.681 72.2813C156.863 71.4494 157.116 70.5501 157.439 69.5834C157.763 68.6166 158.137 67.6161 158.562 66.5819C159.007 65.5477 159.432 64.5697 159.836 63.6479C160.261 62.7037 160.635 61.8493 160.959 61.0849C161.283 60.3205 161.505 59.7135 161.627 59.2638C161.627 59.2413 161.627 59.2189 161.627 59.1964C161.647 59.1514 161.657 59.1064 161.657 59.0615C161.657 59.0165 161.647 58.9715 161.627 58.9266C161.627 58.8816 161.627 58.8479 161.627 58.8254C161.06 59.0727 160.433 59.3537 159.745 59.6685C159.078 59.9608 158.4 60.2531 157.712 60.5453C157.025 60.8151 156.347 61.0737 155.679 61.321C155.032 61.5458 154.435 61.7257 153.889 61.8606C153.808 61.928 153.667 61.9055 153.464 61.7931C153.262 61.6807 153.07 61.5346 152.888 61.3547C152.706 61.1524 152.574 60.95 152.493 60.7477C152.433 60.5228 152.503 60.3205 152.706 60.1406C153.373 60.1406 154.162 59.9945 155.072 59.7022C155.983 59.3875 156.903 59.0277 157.834 58.6231C158.784 58.2184 159.705 57.8249 160.595 57.4427C161.505 57.038 162.304 56.757 162.992 56.5996C163.66 56.5996 163.993 56.9706 163.993 57.7125C163.993 58.5219 163.862 59.32 163.599 60.1069C163.356 60.8713 163.043 61.6245 162.658 62.3664C162.294 63.1084 161.89 63.839 161.444 64.5585C161.02 65.2779 160.615 66.0086 160.231 66.7505C159.867 67.4925 159.553 68.2456 159.29 69.0101C159.027 69.7745 158.896 70.5614 158.896 71.3707V71.7754L170.001 69.2461H170.214C170.497 69.2461 170.75 69.3473 170.972 69.5496C171.215 69.7295 171.387 69.9431 171.488 70.1904C171.609 70.4152 171.62 70.6513 171.518 70.8986C171.417 71.1459 171.164 71.3258 170.76 71.4382C170.679 71.4382 170.588 71.4494 170.487 71.4719C170.406 71.4944 170.214 71.5394 169.91 71.6068C169.627 71.6518 169.202 71.7305 168.636 71.8429C168.069 71.9328 167.27 72.0789 166.239 72.2813C165.227 72.4836 163.933 72.7534 162.355 73.0907C160.797 73.4054 158.875 73.7989 156.59 74.271Z" fill="black"/>
<path d="M172.156 73.2593C172.156 71.7979 172.125 70.2578 172.065 68.6391C172.024 67.0203 171.974 65.3903 171.913 63.7491C171.872 62.0854 171.862 60.4554 171.882 58.8591C171.903 57.2629 171.994 55.7678 172.156 54.3738C172.196 54.3514 172.287 54.3401 172.429 54.3401C172.59 54.3176 172.702 54.3064 172.762 54.3064C173.046 54.3064 173.268 54.3626 173.43 54.475C173.612 54.5649 173.703 54.7785 173.703 55.1158C173.703 56.4422 173.693 57.8924 173.673 59.4662C173.673 61.0175 173.663 62.6025 173.642 64.2212C173.642 65.8175 173.642 67.4025 173.642 68.9763C173.642 70.5501 173.663 71.9778 173.703 73.2593C173.723 73.6415 173.652 73.8888 173.491 74.0012C173.349 74.1361 173.167 74.2036 172.944 74.2036C172.702 74.2036 172.499 74.1361 172.338 74.0012C172.176 73.8888 172.115 73.6415 172.156 73.2593ZM171.488 49.1129C171.488 48.8431 171.569 48.6632 171.731 48.5733C171.893 48.4834 172.075 48.4384 172.277 48.4384C172.682 48.4384 172.934 48.5845 173.036 48.8768C173.137 49.1691 173.187 49.5063 173.187 49.8885C173.066 50.1359 172.914 50.3157 172.732 50.4281C172.55 50.5181 172.358 50.5405 172.156 50.4956C171.974 50.4281 171.812 50.282 171.67 50.0572C171.549 49.8323 171.488 49.5176 171.488 49.1129Z" fill="black"/>
<path d="M177.071 73.4953C176.849 70.4602 176.646 67.425 176.464 64.3899C176.302 61.3322 176.12 58.1622 175.918 54.8797C175.918 54.3401 176.181 54.0703 176.707 54.0703H176.95C177.01 54.0703 177.081 54.1603 177.162 54.3401C177.243 54.52 177.324 54.8572 177.405 55.3518C177.506 55.824 177.607 56.5547 177.708 57.5439C177.83 58.5106 177.971 59.7809 178.133 61.3547C178.295 62.9285 178.477 64.8957 178.679 67.2564C179.104 65.7276 179.438 64.2437 179.681 62.8048C179.923 61.3659 180.237 60.062 180.621 58.8929C181.006 57.7013 181.542 56.6558 182.229 55.7565C182.937 54.8572 183.949 54.194 185.264 53.7668C185.992 53.9017 186.579 54.3963 187.024 55.2507C187.469 56.0825 187.823 57.1167 188.086 58.3533C188.349 59.5898 188.531 60.9388 188.632 62.4002C188.733 63.839 188.794 65.2217 188.814 66.5482C188.834 67.8747 188.844 69.0663 188.844 70.1229C188.844 71.1571 188.864 71.8991 188.905 72.3487C188.844 72.5286 188.753 72.686 188.632 72.8209C188.51 72.9558 188.369 73.0569 188.207 73.1244C188.065 73.1693 187.924 73.1806 187.782 73.1581C187.641 73.1131 187.509 72.9895 187.388 72.7871C187.388 72.5398 187.368 72.034 187.327 71.2696C187.287 70.5052 187.236 69.6171 187.175 68.6054C187.115 67.5712 187.044 66.4808 186.963 65.3341C186.902 64.165 186.842 63.0746 186.781 62.0629C186.74 61.0287 186.7 60.1294 186.66 59.365C186.619 58.6006 186.589 58.0947 186.568 57.8474C186.144 57.0156 185.719 56.5434 185.294 56.431C184.89 56.3186 184.475 56.4647 184.05 56.8694C183.645 57.2741 183.251 57.8924 182.867 58.7242C182.482 59.5561 182.118 60.5004 181.774 61.557C181.43 62.5913 181.107 63.6817 180.803 64.8283C180.5 65.9749 180.237 67.0878 180.014 68.167C179.792 69.2236 179.6 70.1904 179.438 71.0672C179.296 71.9216 179.205 72.5848 179.165 73.0569C179.104 73.2143 178.973 73.3717 178.77 73.5291C178.588 73.664 178.386 73.7651 178.163 73.8326C177.961 73.9 177.749 73.9225 177.526 73.9C177.324 73.8551 177.172 73.7202 177.071 73.4953Z" fill="black"/>
<path d="M194.982 87.1198C196.762 87.0074 198.157 86.4903 199.169 85.5685C200.201 84.6468 200.969 83.4552 201.475 81.9938C201.981 80.5324 202.284 78.8575 202.385 76.9689C202.486 75.1029 202.497 73.1693 202.416 71.1684C202.335 69.1674 202.213 67.1665 202.052 65.1655C201.91 63.1421 201.849 61.2648 201.869 59.5336C201 62.3664 200.18 64.6597 199.412 66.4133C198.643 68.1445 197.925 69.4597 197.257 70.359C196.61 71.2358 196.013 71.7754 195.467 71.9778C194.941 72.1576 194.476 72.1239 194.071 71.8766C193.667 71.6068 193.333 71.1909 193.07 70.6288C192.827 70.0443 192.655 69.4485 192.554 68.8414C192.595 67.8072 192.777 66.6719 193.1 65.4353C193.444 64.1763 193.879 62.951 194.405 61.7594C194.951 60.5453 195.578 59.4212 196.286 58.387C196.994 57.3303 197.743 56.5097 198.532 55.9251C199.321 55.3181 200.14 55.0034 200.99 54.9809C201.839 54.9359 202.658 55.2956 203.447 56.06C203.468 56.0825 203.498 56.386 203.538 56.9706C203.599 57.5327 203.66 58.2858 203.72 59.2301C203.801 60.1519 203.882 61.1973 203.963 62.3664C204.064 63.513 204.155 64.6821 204.236 65.8737C204.317 67.0428 204.388 68.167 204.449 69.2461C204.509 70.3253 204.57 71.2583 204.631 72.0452C204.712 73.3267 204.661 74.6869 204.479 76.1258C204.317 77.5647 204.054 78.9586 203.69 80.3076C203.326 81.679 202.861 82.9606 202.294 84.1521C201.748 85.3437 201.111 86.3217 200.383 87.0861C199.675 87.8505 198.876 88.3339 197.986 88.5363C197.116 88.7611 196.185 88.5925 195.194 88.0304C195.133 88.0304 195.042 88.0192 194.921 87.9967C194.8 87.9967 194.698 87.9629 194.617 87.8955C194.557 87.828 194.547 87.7381 194.587 87.6257C194.628 87.5133 194.759 87.3447 194.982 87.1198ZM194.132 68.6054C194.334 69.3023 194.597 69.6621 194.921 69.6845C195.265 69.6845 195.629 69.4485 196.013 68.9763C196.398 68.4817 196.812 67.796 197.257 66.9192C197.723 66.0423 198.178 65.0868 198.623 64.0526C199.068 63.0184 199.503 61.9617 199.928 60.8826C200.373 59.7809 200.787 58.758 201.172 57.8137C201.172 57.5664 201.121 57.3415 201.02 57.1392C200.919 56.9144 200.696 56.8469 200.352 56.9369C199.786 57.0718 199.23 57.3753 198.683 57.8474C198.158 58.3195 197.662 58.9041 197.197 59.6011C196.752 60.2755 196.337 61.0287 195.953 61.8606C195.588 62.6699 195.265 63.4906 194.982 64.3224C194.719 65.1318 194.506 65.9074 194.344 66.6494C194.203 67.3913 194.132 68.0433 194.132 68.6054Z" fill="black"/>
</svg>
