<svg width="116" height="20" viewBox="0 0 116 20" fill="none" xmlns="http://www.w3.org/2000/svg">
<path d="M5.4 4.15C4.8 4.16667 4.19167 4.175 3.575 4.175C2.95833 4.175 2.38333 4.15 1.85 4.1C1.76667 4.1 1.63333 4.05833 1.45 3.975C1.28333 3.89167 1.10833 3.79167 0.925 3.675C0.741667 3.55833 0.575 3.43333 0.425 3.3C0.291667 3.15 0.225 3.00833 0.225 2.875C0.225 2.775 0.266667 2.7 0.35 2.65C0.433333 2.58333 0.533333 2.53333 0.65 2.5C0.783333 2.46667 0.916667 2.44167 1.05 2.425C1.2 2.39167 1.325 2.375 1.425 2.375C1.69167 2.35833 2.14167 2.33333 2.775 2.3C3.425 2.26667 4.14167 2.23333 4.925 2.2C5.70833 2.15 6.50833 2.11667 7.325 2.1C8.15833 2.06667 8.89167 2.03333 9.525 2C9.575 2 9.70833 2 9.925 2C10.1417 2 10.3583 2.01667 10.575 2.05C10.8083 2.08333 11.0167 2.13333 11.2 2.2C11.4 2.26667 11.5 2.375 11.5 2.525C11.5 2.625 11.4667 2.75 11.4 2.9C11.3333 3.05 11.2417 3.19167 11.125 3.325C11.0083 3.45833 10.875 3.58333 10.725 3.7C10.575 3.8 10.425 3.86667 10.275 3.9C9.99167 3.95 9.65833 3.99167 9.275 4.025C8.89167 4.04167 8.38333 4.05 7.75 4.05V10.425C7.75 10.9583 7.70833 11.6083 7.625 12.375C7.54167 13.1417 7.40833 13.9083 7.225 14.675C7.04167 15.425 6.8 16.1167 6.5 16.75C6.21667 17.3833 5.875 17.825 5.475 18.075C5.29167 18.1917 5.08333 18.2417 4.85 18.225C4.63333 18.225 4.48333 18.1917 4.4 18.125C4.31667 18.0583 4.3 17.9583 4.35 17.825C4.4 17.6917 4.44167 17.5833 4.475 17.5C4.675 16.9833 4.83333 16.425 4.95 15.825C5.08333 15.2083 5.18333 14.5833 5.25 13.95C5.31667 13.3167 5.35833 12.6833 5.375 12.05C5.39167 11.4 5.4 10.7833 5.4 10.2V4.15ZM13.9902 3.25C13.9902 3.06667 13.9236 2.975 13.7902 2.975C13.6402 2.975 13.4319 2.975 13.1652 2.975C12.9152 2.95833 12.6902 2.925 12.4902 2.875C12.2902 2.825 12.1236 2.725 11.9902 2.575C11.8569 2.425 11.7902 2.325 11.7902 2.275C11.7902 2.15833 11.8819 2.03333 12.0652 1.9C12.2486 1.76667 12.3986 1.66667 12.5152 1.6C12.9152 1.4 13.3736 1.20833 13.8902 1.025C14.4236 0.841666 14.8652 0.749999 15.2152 0.749999C15.3152 0.749999 15.4152 0.791665 15.5152 0.874998C15.6319 0.958333 15.7319 1.05833 15.8152 1.175C15.9152 1.275 15.9902 1.38333 16.0402 1.5C16.1069 1.6 16.1402 1.68333 16.1402 1.75V7.975C16.4236 7.64167 16.8236 7.34167 17.3402 7.075C17.8736 6.80833 18.4319 6.675 19.0152 6.675C19.5819 6.675 20.1152 6.775 20.6152 6.975C21.1319 7.15833 21.5736 7.45833 21.9402 7.875C22.3236 8.29167 22.6236 8.83333 22.8402 9.5C23.0736 10.1667 23.1902 10.975 23.1902 11.925C23.1902 12.3917 23.1736 12.9083 23.1402 13.475C23.1069 14.0417 23.0819 14.6167 23.0652 15.2C23.0652 15.7833 23.0819 16.3667 23.1152 16.95C23.1652 17.5167 23.2652 18.0333 23.4152 18.5C23.4986 18.7167 23.5986 18.95 23.7152 19.2C23.8319 19.4667 23.8236 19.6667 23.6902 19.8C23.6236 19.85 23.5236 19.8667 23.3902 19.85C23.2569 19.85 23.1152 19.825 22.9652 19.775C22.8152 19.7417 22.6652 19.7 22.5152 19.65C22.3819 19.6 22.2819 19.55 22.2152 19.5C21.8819 19.2833 21.6236 18.9833 21.4402 18.6C21.2736 18.2167 21.1486 17.8 21.0652 17.35C20.9819 16.9 20.9319 16.4333 20.9152 15.95C20.9152 15.4667 20.9152 15.0083 20.9152 14.575C20.9319 13.5417 20.8986 12.6917 20.8152 12.025C20.7486 11.3583 20.6236 10.825 20.4402 10.425C20.2736 10.0083 20.0569 9.70833 19.7902 9.525C19.5236 9.325 19.2069 9.18333 18.8402 9.1C18.4569 9.01667 17.9902 9.04167 17.4402 9.175C16.9069 9.29167 16.4736 9.51667 16.1402 9.85V14C16.1402 14.8167 16.0736 15.525 15.9402 16.125C15.8236 16.725 15.6652 17.225 15.4652 17.625C15.2819 18.025 15.0736 18.3167 14.8402 18.5C14.6236 18.6833 14.4152 18.7583 14.2152 18.725C14.0986 18.7083 14.0236 18.5417 13.9902 18.225C13.9569 17.9083 13.9402 17.525 13.9402 17.075C13.9402 16.6083 13.9486 16.125 13.9652 15.625C13.9819 15.125 13.9902 14.675 13.9902 14.275V3.25ZM30.1594 18.275C29.2927 18.2583 28.5344 18.0667 27.8844 17.7C27.251 17.3167 26.7344 16.8333 26.3344 16.25C25.9344 15.65 25.6594 14.9917 25.5094 14.275C25.3594 13.5417 25.3344 12.825 25.4344 12.125C25.5344 11.3583 25.7427 10.6583 26.0594 10.025C26.3927 9.39167 26.8094 8.85833 27.3094 8.425C27.8094 7.99167 28.3927 7.66667 29.0594 7.45C29.726 7.21667 30.451 7.125 31.2344 7.175C31.901 7.225 32.4594 7.4 32.9094 7.7C33.3594 8 33.726 8.34167 34.0094 8.725C34.2927 9.10833 34.501 9.49167 34.6344 9.875C34.7677 10.2583 34.851 10.55 34.8844 10.75C35.051 10.8833 35.1927 11.0583 35.3094 11.275C35.426 11.4917 35.4844 11.6417 35.4844 11.725C35.4344 11.975 35.0927 12.1667 34.4594 12.3C34.2094 12.35 33.7927 12.4083 33.2094 12.475C32.626 12.5417 31.9927 12.6083 31.3094 12.675C30.6427 12.7417 29.9844 12.7917 29.3344 12.825C28.701 12.8583 28.2094 12.8667 27.8594 12.85C27.826 13.1667 27.826 13.525 27.8594 13.925C27.8927 14.325 27.9927 14.7083 28.1594 15.075C28.326 15.425 28.576 15.725 28.9094 15.975C29.2427 16.225 29.6927 16.3583 30.2594 16.375C30.626 16.4083 31.0177 16.3833 31.4344 16.3C31.8677 16.2167 32.1677 16.1417 32.3344 16.075C32.9677 15.8583 33.426 15.6833 33.7094 15.55C33.9927 15.4167 34.1927 15.4167 34.3094 15.55C34.4094 15.65 34.3927 15.875 34.2594 16.225C34.1427 16.575 33.8344 16.95 33.3344 17.35C32.8344 17.7333 32.2927 17.9833 31.7094 18.1C31.126 18.2167 30.6094 18.275 30.1594 18.275ZM32.7094 10.7C32.6594 10.45 32.5594 10.2 32.4094 9.95C32.276 9.68333 32.0927 9.45833 31.8594 9.275C31.6427 9.075 31.3844 8.925 31.0844 8.825C30.801 8.725 30.4927 8.70833 30.1594 8.775C29.8427 8.825 29.5594 8.94167 29.3094 9.125C29.076 9.30833 28.8677 9.525 28.6844 9.775C28.501 10.025 28.351 10.2917 28.2344 10.575C28.1177 10.8583 28.0344 11.1333 27.9844 11.4C28.8844 11.2667 29.7094 11.1417 30.4594 11.025C31.2094 10.9083 31.9594 10.8 32.7094 10.7ZM65.0654 4.15C64.6488 4.28333 64.2738 4.46667 63.9404 4.7C63.6238 4.93333 63.3404 5.19167 63.0904 5.475C62.8404 5.74167 62.6154 6.025 62.4154 6.325C62.2321 6.625 62.0738 6.9 61.9404 7.15C61.8071 7.43333 61.6904 7.76667 61.5904 8.15C61.4904 8.51667 61.4154 8.9 61.3654 9.3C61.3154 9.7 61.2821 10.0917 61.2654 10.475C61.2488 10.8583 61.2488 11.2 61.2654 11.5C61.2988 11.9333 61.3821 12.425 61.5154 12.975C61.6488 13.5083 61.8404 14.025 62.0904 14.525C62.3571 15.025 62.6904 15.4667 63.0904 15.85C63.5071 16.2167 64.0071 16.45 64.5904 16.55C64.9404 16.6 65.2821 16.6167 65.6154 16.6C65.9654 16.5667 66.2821 16.5167 66.5654 16.45C66.8654 16.3833 67.1321 16.3083 67.3654 16.225C67.6154 16.125 67.8238 16.0333 67.9904 15.95C68.1738 15.8667 68.3904 15.7583 68.6404 15.625C68.9071 15.475 69.1654 15.35 69.4154 15.25C69.6654 15.1333 69.8988 15.0583 70.1154 15.025C70.3321 14.975 70.4821 15.0083 70.5654 15.125C70.6654 15.2583 70.6821 15.4333 70.6154 15.65C70.5654 15.85 70.4571 16.075 70.2904 16.325C70.1238 16.5583 69.9154 16.7917 69.6654 17.025C69.4321 17.2583 69.1904 17.4667 68.9404 17.65C68.4738 17.9833 67.8988 18.2667 67.2154 18.5C66.5321 18.75 65.8571 18.8833 65.1904 18.9C64.2738 18.9167 63.3904 18.775 62.5404 18.475C61.6904 18.175 60.9821 17.7083 60.4154 17.075C60.0821 16.7083 59.7904 16.2417 59.5404 15.675C59.2904 15.1083 59.0904 14.5 58.9404 13.85C58.7904 13.1833 58.6904 12.5 58.6404 11.8C58.5904 11.0833 58.6071 10.4 58.6904 9.75C58.7904 8.96667 58.9904 8.15 59.2904 7.3C59.5904 6.43333 60.0071 5.64167 60.5404 4.925C61.0738 4.19167 61.7321 3.575 62.5154 3.075C63.2988 2.55833 64.2154 2.25 65.2654 2.15C65.7154 2.1 66.1904 2.10833 66.6904 2.175C67.2071 2.24167 67.6654 2.34167 68.0654 2.475C68.4821 2.60833 68.8238 2.75833 69.0904 2.925C69.3571 3.09167 69.4821 3.24167 69.4654 3.375C69.4321 3.575 69.3404 3.73333 69.1904 3.85C69.0404 3.95 68.8571 4.025 68.6404 4.075C68.4404 4.10833 68.2238 4.125 67.9904 4.125C67.7738 4.10833 67.5738 4.08333 67.3904 4.05C66.9738 3.96667 66.5738 3.93333 66.1904 3.95C65.8238 3.95 65.4488 4.01667 65.0654 4.15ZM71.6688 12.85C71.6688 12.0667 71.8104 11.3167 72.0938 10.6C72.3938 9.88333 72.8104 9.25 73.3438 8.7C73.8771 8.15 74.5104 7.71667 75.2438 7.4C75.9771 7.06667 76.7854 6.9 77.6688 6.9C78.4021 6.9 79.0688 7.05833 79.6688 7.375C80.2854 7.69167 80.8104 8.11667 81.2438 8.65C81.6771 9.18333 82.0104 9.79167 82.2438 10.475C82.4938 11.1583 82.6188 11.8667 82.6188 12.6C82.6188 13.35 82.4771 14.1 82.1938 14.85C81.9271 15.5833 81.5438 16.2417 81.0438 16.825C80.5438 17.3917 79.9438 17.85 79.2438 18.2C78.5438 18.5667 77.7688 18.75 76.9188 18.75C76.1188 18.75 75.3938 18.6 74.7438 18.3C74.0938 18.0167 73.5354 17.6167 73.0688 17.1C72.6188 16.5667 72.2688 15.9417 72.0188 15.225C71.7854 14.4917 71.6688 13.7 71.6688 12.85ZM77.6188 9.05C77.0688 9.05 76.5604 9.15833 76.0938 9.375C75.6271 9.575 75.2188 9.85833 74.8688 10.225C74.5188 10.575 74.2438 10.9917 74.0438 11.475C73.8604 11.9417 73.7688 12.4333 73.7688 12.95C73.7688 13.3833 73.8438 13.8167 73.9938 14.25C74.1604 14.6667 74.3854 15.05 74.6688 15.4C74.9521 15.75 75.2938 16.0333 75.6938 16.25C76.1104 16.4667 76.5604 16.575 77.0438 16.575C77.5271 16.575 77.9854 16.4583 78.4188 16.225C78.8688 15.975 79.2521 15.6583 79.5688 15.275C79.9021 14.8917 80.1604 14.4583 80.3438 13.975C80.5438 13.475 80.6438 12.975 80.6438 12.475C80.6438 12.075 80.5688 11.675 80.4188 11.275C80.2854 10.875 80.0854 10.5083 79.8188 10.175C79.5688 9.84167 79.2521 9.575 78.8688 9.375C78.5021 9.15833 78.0854 9.05 77.6188 9.05ZM87.1531 12.125C87.1531 12.6417 87.1615 13.1417 87.1781 13.625C87.2115 14.0917 87.2865 14.5167 87.4031 14.9C87.5365 15.2667 87.7281 15.575 87.9781 15.825C88.2281 16.0583 88.5698 16.2 89.0031 16.25C89.3031 16.2833 89.6031 16.2667 89.9031 16.2C90.2198 16.1333 90.5031 16.0417 90.7531 15.925C90.8198 15.9083 90.9365 15.8583 91.1031 15.775C91.2865 15.6917 91.4698 15.625 91.6531 15.575L92.0031 15.475V7.925C91.7698 7.775 91.5698 7.59167 91.4031 7.375C91.2365 7.15833 91.1198 6.90833 91.0531 6.625C91.0365 6.55833 91.0281 6.475 91.0281 6.375C91.0281 6.25833 91.0365 6.15 91.0531 6.05C91.0698 5.95 91.0948 5.86667 91.1281 5.8C91.1781 5.71667 91.2448 5.675 91.3281 5.675C91.4115 5.675 91.5115 5.69167 91.6281 5.725C91.7448 5.75833 91.8531 5.79167 91.9531 5.825C92.1865 5.90833 92.4781 6.03333 92.8281 6.2C93.1948 6.36667 93.4865 6.525 93.7031 6.675C93.8531 6.79167 93.9615 6.93333 94.0281 7.1C94.1115 7.25 94.1531 7.45 94.1531 7.7V16.225C94.1531 16.4417 94.1781 16.6667 94.2281 16.9C94.2948 17.1167 94.3698 17.3083 94.4531 17.475C94.5531 17.7083 94.6365 17.9167 94.7031 18.1C94.7865 18.3 94.7781 18.4417 94.6781 18.525C94.6281 18.575 94.5448 18.6 94.4281 18.6C94.3115 18.6 94.1781 18.5833 94.0281 18.55C93.8781 18.5333 93.7281 18.5 93.5781 18.45C93.4448 18.4167 93.3281 18.375 93.2281 18.325C92.8115 18.1083 92.4948 17.825 92.2781 17.475C92.2448 17.4083 92.2115 17.35 92.1781 17.3C92.1615 17.2333 92.1365 17.1667 92.1031 17.1L91.7781 17.4C91.4281 17.7333 90.9865 18.0167 90.4531 18.25C89.9365 18.5 89.3781 18.625 88.7781 18.625C87.6281 18.625 86.7031 18.2083 86.0031 17.375C85.3031 16.525 84.9365 15.2 84.9031 13.4C84.9031 13.0333 84.9115 12.625 84.9281 12.175C84.9448 11.725 84.9448 11.2667 84.9281 10.8C84.9281 10.3333 84.9031 9.875 84.8531 9.425C84.8198 8.95833 84.7448 8.53333 84.6281 8.15C84.5948 8.05 84.5448 7.94167 84.4781 7.825C84.4281 7.69167 84.3781 7.56667 84.3281 7.45C84.2948 7.33333 84.2781 7.225 84.2781 7.125C84.2781 7.00833 84.3198 6.91667 84.4031 6.85C84.4698 6.8 84.5698 6.78333 84.7031 6.8C84.8365 6.8 84.9781 6.825 85.1281 6.875C85.2781 6.90833 85.4198 6.95 85.5531 7C85.7031 7.05 85.8115 7.1 85.8781 7.15C86.1448 7.31667 86.3615 7.53333 86.5281 7.8C86.6948 8.05 86.8198 8.33333 86.9031 8.65C87.0031 8.96667 87.0698 9.30833 87.1031 9.675C87.1365 10.0417 87.1531 10.4083 87.1531 10.775V12.125ZM99.6496 9.05C99.7496 8.9 99.8913 8.75833 100.075 8.625C100.275 8.49167 100.483 8.375 100.7 8.275C100.933 8.175 101.175 8.1 101.425 8.05C101.675 7.98333 101.9 7.95 102.1 7.95C103.45 7.95 104.466 8.39167 105.15 9.275C105.85 10.1583 106.2 11.5083 106.2 13.325C106.2 13.7417 106.175 14.1667 106.125 14.6C106.091 15.0333 106.066 15.475 106.05 15.925C106.05 16.375 106.066 16.8167 106.1 17.25C106.15 17.6833 106.258 18.1083 106.425 18.525C106.475 18.625 106.525 18.7333 106.575 18.85C106.641 18.9833 106.7 19.1083 106.75 19.225C106.8 19.3583 106.825 19.475 106.825 19.575C106.825 19.675 106.783 19.7583 106.7 19.825C106.633 19.875 106.533 19.8917 106.4 19.875C106.266 19.875 106.125 19.85 105.975 19.8C105.825 19.7667 105.675 19.725 105.525 19.675C105.391 19.625 105.291 19.575 105.225 19.525C104.925 19.325 104.683 19.0417 104.5 18.675C104.333 18.3083 104.208 17.9 104.125 17.45C104.041 16.9833 103.991 16.5083 103.975 16.025C103.958 15.525 103.95 15.05 103.95 14.6C103.95 14.0833 103.925 13.5833 103.875 13.1C103.825 12.6 103.725 12.1583 103.575 11.775C103.425 11.375 103.208 11.05 102.925 10.8C102.658 10.5333 102.308 10.375 101.875 10.325C101.558 10.2917 101.191 10.3167 100.775 10.4C100.375 10.4667 100.025 10.675 99.7246 11.025C99.7246 11.925 99.7163 12.8333 99.6996 13.75C99.6829 14.65 99.6579 15.575 99.6246 16.525C99.6079 17.0083 99.5413 17.4583 99.4246 17.875C99.3079 18.275 99.1579 18.625 98.9746 18.925C98.8079 19.2417 98.6163 19.4833 98.3996 19.65C98.1996 19.8333 97.9913 19.925 97.7746 19.925C97.6413 19.925 97.5579 19.7583 97.5246 19.425C97.4913 19.0917 97.4746 18.7 97.4746 18.25C97.4913 17.8167 97.5079 17.375 97.5246 16.925C97.5579 16.475 97.5746 16.125 97.5746 15.875C97.5746 14.875 97.5829 13.8333 97.5996 12.75C97.6329 11.65 97.6079 10.475 97.5246 9.225C97.2913 9.075 97.0746 8.89167 96.8746 8.675C96.6913 8.45833 96.5663 8.20833 96.4996 7.925C96.4829 7.85833 96.4746 7.775 96.4746 7.675C96.4746 7.55833 96.4829 7.45 96.4996 7.35C96.5163 7.25 96.5413 7.16667 96.5746 7.1C96.6246 7.01667 96.6913 6.975 96.7746 6.975C96.8579 6.975 96.9579 6.99167 97.0746 7.025C97.1913 7.05833 97.2996 7.09167 97.3996 7.125C97.5163 7.175 97.6579 7.23333 97.8246 7.3C97.9913 7.36667 98.1579 7.44167 98.3246 7.525C98.4913 7.59167 98.6496 7.66667 98.7996 7.75C98.9663 7.83333 99.0996 7.90833 99.1996 7.975C99.3496 8.09167 99.4579 8.23333 99.5246 8.4C99.6079 8.55 99.6496 8.75 99.6496 9V9.05ZM110.296 6.35C110.296 5.83333 110.262 5.425 110.196 5.125C110.146 4.825 110.004 4.51667 109.771 4.2C109.721 4.15 109.687 4.075 109.671 3.975C109.671 3.85833 109.679 3.74167 109.696 3.625C109.712 3.50833 109.746 3.4 109.796 3.3C109.846 3.2 109.904 3.125 109.971 3.075C110.104 3.00833 110.304 3.03333 110.571 3.15C110.837 3.25 111.104 3.39167 111.371 3.575C111.654 3.74167 111.904 3.925 112.121 4.125C112.337 4.30833 112.471 4.45 112.521 4.55C112.671 4.73333 112.746 4.925 112.746 5.125C112.662 5.425 112.612 5.69167 112.596 5.925C112.596 6.14167 112.596 6.4 112.596 6.7V7.275C112.979 7.225 113.354 7.175 113.721 7.125C114.087 7.05833 114.462 6.99167 114.846 6.925C114.946 6.90833 115.054 6.90833 115.171 6.925C115.304 6.94167 115.429 6.975 115.546 7.025C115.662 7.05833 115.762 7.10833 115.846 7.175C115.929 7.225 115.971 7.275 115.971 7.325C115.971 7.45833 115.929 7.60833 115.846 7.775C115.779 7.925 115.679 8.075 115.546 8.225C115.429 8.35833 115.296 8.475 115.146 8.575C115.012 8.675 114.887 8.725 114.771 8.725C114.287 8.725 113.821 8.75 113.371 8.8L112.596 8.875V12.175C112.596 12.7583 112.604 13.35 112.621 13.95C112.637 14.5333 112.704 15.075 112.821 15.575C112.937 16.0583 113.129 16.4583 113.396 16.775C113.662 17.075 114.046 17.225 114.546 17.225C114.662 17.225 114.787 17.2167 114.921 17.2C115.071 17.1833 115.204 17.175 115.321 17.175C115.454 17.1583 115.562 17.1667 115.646 17.2C115.746 17.2167 115.796 17.2667 115.796 17.35C115.796 17.4167 115.762 17.5083 115.696 17.625C115.646 17.7417 115.554 17.8667 115.421 18C115.304 18.1167 115.137 18.225 114.921 18.325C114.721 18.4417 114.479 18.5167 114.196 18.55C113.562 18.6333 112.954 18.5583 112.371 18.325C111.804 18.0917 111.379 17.7667 111.096 17.35C110.696 16.7833 110.462 16.1 110.396 15.3C110.329 14.5 110.296 13.4917 110.296 12.275V9.125C110.062 9.14167 109.829 9.15 109.596 9.15C109.362 9.15 109.112 9.15 108.846 9.15C108.746 9.15 108.612 9.125 108.446 9.075C108.296 9.025 108.146 8.95833 107.996 8.875C107.846 8.775 107.712 8.66667 107.596 8.55C107.496 8.43333 107.446 8.30833 107.446 8.175C107.462 8.075 107.496 7.975 107.546 7.875C107.612 7.75833 107.671 7.69167 107.721 7.675C107.871 7.675 108.029 7.675 108.196 7.675C108.362 7.65833 108.529 7.64167 108.696 7.625L110.296 7.45V6.35Z" fill="black"/>
</svg>
