<svg width="250" height="250" viewBox="0 0 250 250" fill="none" xmlns="http://www.w3.org/2000/svg">
<rect width="250" height="250" fill="#FFF6D5"/>
<line y1="25" x2="250" y2="25" stroke="#BEC8D2" stroke-width="2"/>
<line y1="50" x2="250" y2="50" stroke="#BEC8D2" stroke-width="2"/>
<line y1="100" x2="250" y2="100" stroke="#BEC8D2" stroke-width="2"/>
<line y1="225" x2="250" y2="225" stroke="#BEC8D2" stroke-width="2"/>
<line y1="201" x2="250" y2="201" stroke="#BEC8D2" stroke-width="2"/>
<line y1="175" x2="250" y2="175" stroke="#BEC8D2" stroke-width="2"/>
<line y1="150" x2="250" y2="150" stroke="#BEC8D2" stroke-width="2"/>
<line y1="126" x2="250" y2="126" stroke="#BEC8D2" stroke-width="2"/>
<line y1="75" x2="250" y2="75" stroke="#BEC8D2" stroke-width="2"/>
<line x1="33" x2="33" y2="250" stroke="#FF8C82" stroke-width="2"/>
<path d="M55.8957 66.4856L56.6142 66.3779C58.6102 66.0789 62.3216 65.788 67.7485 65.5055L74.4219 64.6892L74.6015 64.6623C77.6354 64.2077 79.8299 63.7361 81.1852 63.2473C81.9334 64.9719 82.4959 67.0916 82.8727 69.6065L82.9176 69.9059C83.0791 70.9837 82.9203 71.5585 82.4413 71.6303L82.2377 71.9057C82.2616 72.0653 82.528 72.2091 83.037 72.3369L83.1567 72.319L83.1926 72.5585C83.0069 72.9536 82.3412 73.2779 81.1956 73.5312C80.2375 73.6747 79.7106 73.4271 79.6149 72.7884L79.3397 71.3603L78.9869 68.5969C78.9331 68.2377 77.7285 68.2345 75.3733 68.5874L71.7806 69.1257L69.7358 69.3709C69.3765 69.4247 69.5875 72.7399 70.3689 79.3165C70.9368 84.7415 71.3643 88.412 71.6514 90.3281L71.9206 92.1245C71.9984 92.6434 71.8995 93.2093 71.6239 93.822L71.6329 93.8818C71.9523 93.834 72.1947 94.2262 72.3602 95.0585L72.3152 95.9836L72.1954 96.0016L72.1864 95.9417L72.1326 95.5824L72.7127 100.271C72.7844 100.75 74.8232 100.873 78.829 100.64C79.6294 100.806 80.0654 101.128 80.1372 101.607C79.9255 102.374 79.9004 103.296 80.0619 104.374C79.9421 104.392 79.9122 104.6 79.972 104.999L79.7683 105.275C75.4611 105.675 71.5112 106.145 67.9185 106.683L66.5413 106.889C64.705 107.164 63.2998 107.457 62.3258 107.766C62.222 107.618 61.865 106.325 61.2546 103.886L61.3145 103.877L62.2066 104.11L62.2665 104.101L62.4791 103.886L62.4701 103.826C62.3604 103.638 62.1458 103.568 61.8265 103.616L61.6199 103.464L61.602 103.344C61.584 103.224 62.4294 102.873 64.1379 102.29C64.12 102.171 65.5052 101.881 68.2935 101.423C68.6129 101.375 68.6381 100.045 68.369 97.432L68.0942 93.5549C67.2385 90.2955 66.7508 88.2666 66.6312 87.4682L64.1961 75.711L63.9629 74.1541L63.7507 71.9207L63.5143 71.1602L63.682 70.6453L63.6371 70.3459C63.5833 69.9866 61.9766 70.0233 58.817 70.4559C56.5596 70.9166 55.4458 71.2467 55.4757 71.4463C55.254 72.4183 55.1011 73.8493 55.017 75.7394L54.6517 76.1615L54.5229 76.1196L54.1038 76.1824C53.968 76.366 53.8004 76.4727 53.6008 76.5026L51.9421 76.8736C51.8285 76.1152 51.7118 75.3367 51.5922 74.5384C51.5065 73.6941 51.4308 73.0524 51.365 72.6133C51.3391 72.1682 51.3112 71.8458 51.2813 71.6463L50.641 69.4157C50.5692 68.9367 50.8267 68.6124 51.4136 68.4429L52.0244 67.6166L52.3238 67.5718L52.9704 68.2096L53.0902 68.1916C53.6432 67.2517 54.5783 66.683 55.8957 66.4856ZM69.6494 66.7512L69.4967 66.9578C69.5266 67.1574 70.1862 67.2014 71.4756 67.0898C72.1422 66.9083 72.4696 66.7776 72.4576 66.6978L72.4397 66.578C71.9367 66.4901 71.0665 66.5389 69.829 66.7243L69.6494 66.7512ZM77.7447 67.2525L77.1459 67.3422L77.1548 67.4021C77.2646 67.5897 77.4392 67.6656 77.6787 67.6297L78.038 67.5759L78.0201 67.4561L77.7447 67.2525ZM79.2416 67.0282L78.9422 67.0731L78.9781 67.3126L79.1578 67.2857L79.2506 67.0881L79.2416 67.0282ZM66.5322 70.4631L66.5411 70.523L66.7477 70.6757C67.1469 70.6159 67.5072 70.2966 67.8286 69.7179L67.8107 69.5981L67.5023 69.5831C67.1431 69.6369 66.8197 69.9303 66.5322 70.4631ZM53.7572 71.8263L53.5027 72.1705L53.5744 72.6496L53.79 72.8622L53.9097 72.8442L54.1643 72.5L54.1015 72.0808L53.8171 71.8173L53.7572 71.8263ZM64.667 70.6814L64.7118 70.9808C64.9213 71.5616 65.0859 71.8431 65.2057 71.8251C65.4053 71.7952 65.5321 71.5517 65.586 71.0947L65.5232 70.6755C65.4873 70.436 65.3177 70.2573 65.0143 70.1395C64.7349 70.1814 64.6191 70.362 64.667 70.6814ZM80.3881 68.1421L80.2683 68.16L80.2053 68.9654L80.5227 69.0403L80.6754 68.8337L80.6036 68.3547L80.3881 68.1421ZM67.4181 72.2895L67.3582 72.2985L67.3461 73.035L67.4896 73.993L67.6094 73.9751L67.5437 73.1278L67.4181 72.2895ZM80.603 72.0282L80.5012 72.1659L80.5461 72.4652L80.6658 72.4473L80.8694 72.1719L80.8605 72.112L80.6629 72.0192L80.603 72.0282ZM68.7644 77.5978L68.6447 77.6158L68.8479 79.7893L69.0632 81.2264C69.2128 82.2244 69.3873 82.7084 69.5869 82.6785L69.7067 82.6606L69.7697 81.8552L68.7644 77.5978ZM66.4588 79.78L66.366 79.9776L66.4438 80.0883L66.5037 80.0794L66.4588 79.78ZM67.7904 84.1722L67.6107 84.1991C67.5208 85.2329 67.5625 86.3287 67.7359 87.4863L67.8436 88.2049C68.1307 90.121 68.4539 91.0521 68.8132 90.9983C68.9329 90.9804 68.9649 90.649 68.9091 90.0044L68.1282 87.2439L68.2302 85.8817L67.7904 84.1722ZM69.5255 92.4834L69.2859 92.5193L69.4385 93.5372L70.112 94.3546L70.0671 94.0552C69.9056 92.9774 69.7251 92.4535 69.5255 92.4834ZM65.3144 102.788L65.0599 103.132L65.1048 103.431C65.1167 103.511 65.2026 103.539 65.3622 103.515L66.6017 103.207L66.5748 103.027C66.3733 102.772 66.0529 102.677 65.6138 102.743L65.3144 102.788ZM63.9133 103.242L63.7336 103.269L63.6408 103.467L63.8473 103.62L64.0868 103.584L64.1797 103.386L63.9133 103.242ZM76.7331 102.179C77.3558 102.249 78.0663 102.224 78.8647 102.104L78.9665 101.966L78.9396 101.787L78.3139 101.697L77.1163 101.876C76.8429 101.958 76.7151 102.059 76.7331 102.179ZM75.712 103.127L75.5084 103.403C75.67 103.664 75.8906 103.774 76.17 103.732L76.5293 103.678C76.7688 103.643 76.9195 103.559 76.9814 103.427L76.9634 103.307C76.9395 103.148 76.6421 103.07 76.0713 103.074L75.712 103.127ZM69.9816 104.109L69.4607 104.309L69.4966 104.549L70.0444 104.528L70.8827 104.402C71.1223 104.366 71.25 104.265 71.266 104.1C71.0485 104.01 70.7401 103.995 70.3409 104.055L69.9816 104.109ZM65.826 104.976L65.5446 105.141L65.5715 105.32L66.5565 105.356L67.308 105.06L67.299 105L67.0236 104.797L65.826 104.976ZM63.302 106.518L63.3199 106.637L63.5175 106.73L63.6373 106.712C63.8928 106.511 63.9906 106.21 63.9308 105.811L63.9218 105.751L63.7153 105.599L63.6554 105.607C63.366 105.855 63.2481 106.158 63.302 106.518ZM79.0112 103.49L78.8076 103.766L78.8345 103.945L79.0919 104.029L79.2357 103.763L79.2088 103.583L79.0112 103.49ZM95.7068 73.1323L97.4552 73.3601L97.9941 73.2794C100.437 74.0562 102.753 75.0764 104.942 76.3402C107.241 77.7916 108.457 78.9564 108.588 79.8346L108.469 79.8525C108.065 79.3415 107.704 79.1099 107.385 79.1578L107.325 79.1668C107.205 79.1847 107.157 79.2735 107.181 79.4332C107.407 79.8484 107.88 80.553 108.6 81.5471L108.72 81.5291C108.8 81.5172 108.869 81.3026 108.929 80.8855L108.989 80.8765C109.115 80.8985 109.341 81.4564 109.669 82.5502L110.387 83.667L110.384 84.4634L110.886 86.5921C110.757 87.6319 110.694 88.9881 110.7 90.6607C110.654 91.4431 109.223 94.5555 106.405 99.9978C105.036 101.754 103.593 102.746 102.076 102.973C100.703 103.342 99.1378 103.658 97.3814 103.921L96.2437 104.092C95.5651 104.193 93.7019 103.881 90.6543 103.154C86.5372 100.465 84.3501 98.2619 84.0929 96.5454C83.4124 95.5453 82.8238 94.6131 82.327 93.7488C82.2492 93.2299 82.5309 91.4326 83.1721 88.357C82.897 86.5208 83.1447 85.1776 83.9152 84.3274C85.1873 80.0145 87.1707 77.0439 89.8654 75.4157C92.2428 74.1207 94.1899 73.3596 95.7068 73.1323ZM87.7459 93.5491L87.7997 93.9084C88.52 94.9024 89.3122 95.9674 90.1763 97.1032C90.2361 97.5024 91.0783 97.9476 92.7029 98.4388C93.547 99.1695 94.983 99.6278 97.0108 99.8137L98.1066 99.772C99.8092 99.1495 101.07 98.5729 101.888 98.0421L103.775 95.9228C105.651 93.1927 106.427 91.0153 106.102 89.3906L106.021 88.8517C105.686 88.2488 105.411 87.2289 105.195 85.7918C105.028 84.6741 104.976 83.7839 105.04 83.1213C104.998 82.8418 104.115 82.2599 102.391 81.3754C101.034 79.9462 99.7296 79.1416 98.4782 78.9618L97.7596 79.0694C93.119 79.9688 90.8406 80.698 90.9243 81.2568C90.0419 82.4503 89.4759 83.5759 89.2263 84.6336C88.1522 86.1823 87.6481 87.1762 87.7139 87.6153C87.5998 89.3058 87.6105 91.2837 87.7459 93.5491ZM87.4309 78.7804L87.2961 79.1067L87.332 79.3462C87.5715 79.3103 88.6634 78.2896 90.6078 76.284L91.0599 76.0326L91.4281 76.0386C94.0608 75.3585 95.3592 74.8986 95.3233 74.6591L95.3144 74.5992L94.3294 74.5631C91.6149 74.9699 89.3154 76.3756 87.4309 78.7804ZM92.2898 79.338L92.2988 79.3979L92.4455 79.5596L93.2838 79.434L97.3916 77.8389L97.3736 77.7191L96.2001 77.6501C93.5334 78.3762 92.23 78.9388 92.2898 79.338ZM85.1229 95.6563L84.9103 95.8719L84.9731 96.291C85.2563 97.6363 85.7492 98.3379 86.4517 98.3959L86.5026 98.3271L86.4937 98.2672C85.9391 96.4728 85.4822 95.6025 85.1229 95.6563ZM91.865 77.3201L91.9099 77.6195C94.9697 76.7937 96.4907 76.3209 96.4727 76.2011L95.9668 76.0933L95.9069 76.1022C93.9908 76.3893 92.6435 76.7953 91.865 77.3201ZM96.6138 74.2821C96.8971 74.811 97.3781 75.0247 98.0567 74.923L98.6644 74.8932L98.7752 74.8153L98.7304 74.5159C98.6646 74.0768 98.2065 73.8802 97.3563 73.9259C96.8433 74.0436 96.5958 74.1623 96.6138 74.2821ZM89.502 101.184L89.0829 101.246L89.1188 101.486C89.7155 101.927 90.6924 102.046 92.0497 101.843L92.7083 101.744C92.4669 101.495 91.3981 101.308 89.502 101.184ZM99.7139 101.919L99.7319 102.039C99.7498 102.158 100.064 102.213 100.675 102.203C101.354 102.102 101.678 101.951 101.648 101.751L101.63 101.632C101.566 101.478 101.403 101.339 101.139 101.215L100.6 101.296C100.161 101.362 99.8657 101.57 99.7139 101.919ZM109.386 88.8372C109.606 90.0288 109.801 90.6526 109.973 90.7085L110.092 90.6905C110.027 90.2514 110.134 89.7455 110.416 89.1727L110.389 88.9931L109.596 88.1936L109.476 88.2115C109.396 88.2235 109.366 88.4321 109.386 88.8372ZM103.891 79.1303L103.652 79.1662C103.969 79.6492 104.613 80.0016 105.585 80.2233L105.825 80.1874L105.978 79.9809L105.969 79.921C105.182 79.3041 104.49 79.0406 103.891 79.1303ZM102.296 77.4714L102.314 77.5912C102.505 78.0523 103.139 78.4675 104.214 78.8369L104.394 78.81L104.487 78.6124L104.478 78.5526C104.236 78.303 103.509 77.9427 102.296 77.4714ZM98.0475 76.0876L97.9367 76.1654C98.7849 76.6506 99.4286 76.8602 99.8677 76.7944L99.9096 76.6657L99.9006 76.6058C99.1842 76.1826 98.5665 76.0098 98.0475 76.0876ZM93.6904 101.352L93.7173 101.532C93.7532 101.771 94.33 101.807 95.4477 101.64L95.4986 101.571L95.4807 101.451C94.9259 101.289 94.3291 101.256 93.6904 101.352ZM101.003 74.9714L100.85 75.1779C101.373 75.671 101.854 75.8846 102.293 75.8188C102.227 75.3797 101.837 75.0913 101.122 74.9534L101.003 74.9714ZM87.3164 83.328L87.3792 83.7472L87.5588 83.7203C88.006 83.1635 88.2087 82.7454 88.1668 82.4659L88.1578 82.406L87.8584 82.4509C87.6428 82.6465 87.4622 82.9388 87.3164 83.328ZM100.436 78.5459C100.736 78.9092 101.045 79.067 101.364 79.0191L101.406 78.8904L101.388 78.7706C101.334 78.4114 101.148 78.2556 100.828 78.3035C100.555 78.3853 100.424 78.4661 100.436 78.5459ZM108.604 93.4237L108.613 93.4836C108.932 93.4357 109.164 93.0745 109.308 92.3999L109.29 92.2801L109.11 92.3071C108.871 92.3429 108.702 92.7152 108.604 93.4237ZM88.1073 80.0259C88.4666 79.9721 88.77 79.6817 89.0176 79.1549L88.9907 78.9752C88.3419 79.2765 88.0475 79.6267 88.1073 80.0259ZM109.401 92.2023L109.7 92.1575L109.966 92.3012C109.911 91.6565 109.769 91.392 109.541 91.5078L109.422 91.5257L109.299 91.1155L109.401 92.2023ZM103.01 101.853L103.07 101.845C103.753 101.497 104.082 101.244 104.058 101.084L103.92 100.982C103.391 101.266 103.088 101.556 103.01 101.853ZM87.9306 99.2764L87.709 99.432L87.7269 99.5518L88.2777 99.959L88.5172 99.9231C88.4754 99.6437 88.2798 99.4281 87.9306 99.2764ZM92.5585 102.379L92.5675 102.439L93.3459 102.322L93.4477 102.184L93.3011 102.023L93.1813 102.041C92.7821 102.1 92.5745 102.213 92.5585 102.379ZM109.707 84.4423L109.554 84.6489L109.59 84.8884L109.806 85.101L110.01 84.8256L109.974 84.5861L109.767 84.4333L109.707 84.4423ZM84.0915 86.3214C84.2911 86.2914 84.4498 86.1248 84.5676 85.8215L84.5497 85.7017C84.1904 85.7555 84.0377 85.9621 84.0915 86.3214ZM83.2043 93.0664L83.1114 93.2639C83.2052 93.6172 83.292 93.7879 83.3718 93.7759L83.4826 93.6981L83.4377 93.3987L83.2641 93.0574L83.2043 93.0664ZM97.1193 76.8389L97.1283 76.8988L97.6553 76.33L97.5266 76.2881C97.1633 76.5874 97.0275 76.771 97.1193 76.8389ZM84.9841 84.106L85.0439 84.0971C85.1976 84.0332 85.2535 83.8616 85.2117 83.5822L85.0919 83.6001C84.9841 83.6979 84.9482 83.8665 84.9841 84.106ZM86.42 91.2376L86.2163 91.513L86.2343 91.6328L86.4139 91.6059L86.5067 91.4083L86.4798 91.2287L86.42 91.2376ZM88.598 81.6666L88.3585 81.7025L88.3944 81.942L88.5142 81.9241L88.616 81.7864L88.598 81.6666ZM129.348 75.3771L129.648 75.3322C129.887 75.2963 130.363 76.8372 131.075 79.9549L131.135 79.946C131.201 80.3851 129.219 81.0494 125.189 81.9389C120.616 83.5629 117.751 84.4616 116.593 84.635L116.575 84.5153C116.527 84.1959 118.127 83.5684 121.375 82.6329C122.798 82.0523 123.497 81.6822 123.473 81.5225L123.464 81.4626L122.866 81.5523C118.197 82.5376 115.941 83.5491 116.096 84.587L115.653 84.8983C114.296 85.1017 113.405 83.7862 112.98 80.952C112.866 80.1935 114.343 79.4214 117.408 78.6355C117.39 78.5157 117.581 78.4259 117.98 78.3661L119.214 78.4262L119.812 78.3365L129.348 75.3771ZM128.303 76.5744L127.953 76.6881L127.98 76.8678L128.519 76.787L128.8 76.6224L128.782 76.5027L128.303 76.5744ZM125.417 77.7416L126.136 77.6339C126.535 77.5741 126.742 77.4614 126.758 77.2957L126.749 77.2358L126.63 77.2538C125.803 77.4592 125.399 77.6218 125.417 77.7416ZM122.333 78.8159L122.351 78.9356C122.79 78.8698 123.012 78.7142 123.016 78.4687L122.716 78.5136C122.437 78.5554 122.309 78.6562 122.333 78.8159ZM126.264 78.9003L127.581 78.703C128.847 78.4317 129.519 78.1474 129.596 77.85L129.578 77.7303L129.261 77.6554C127.227 78.2458 126.228 78.6608 126.264 78.9003ZM119.531 79.7256L119.567 79.9651L119.627 79.9561C120.465 79.8305 121.08 79.5751 121.471 79.19L121.453 79.0702L121.333 79.0882C120.854 79.1599 120.253 79.3724 119.531 79.7256ZM114.202 80.5241L113.998 80.7995L114.115 81.5779L114.252 81.6797L114.372 81.6618C114.492 81.6438 114.533 81.3724 114.495 80.8475L114.468 80.6678L114.321 80.5061L114.202 80.5241ZM115.938 80.2639L115.794 80.5303L115.812 80.6501L116.112 80.6052L116.205 80.4076L116.178 80.228L115.938 80.2639ZM125.135 79.1307L125.016 79.1486L125.034 79.2684L125.273 79.2325L125.135 79.1307ZM124.626 81.0437L124.635 81.1035L124.755 81.0856C128.29 80.4335 130.042 80.0077 130.012 79.8081L129.994 79.6883C129.897 79.5805 129.759 79.4787 129.581 79.3829L129.521 79.3918C128.124 79.6012 126.492 80.1518 124.626 81.0437ZM114.333 82.2186L114.24 82.4162L114.258 82.5359L114.378 82.518L114.54 82.3713L114.513 82.1917L114.333 82.2186ZM139.337 52.1464L140.175 52.0208L140.456 51.8561L140.774 51.931L141.372 51.8413C143.768 51.4824 146.666 51.6196 150.067 52.2529C153.493 53.3312 155.557 54.1648 156.257 54.7537L159.428 56.2991C159.841 56.6045 160.096 56.8111 160.194 56.9189L160.212 57.0387L160.152 57.0476C158.783 56.3548 157.959 56.0294 157.679 56.0712L157.619 56.0802L157.458 56.2269L157.467 56.2868C157.544 56.8057 158.239 57.3547 159.55 57.9337L162.454 60.5598C163.082 61.486 164.003 63.001 165.216 65.1049C165.747 65.9233 166.152 66.3116 166.432 66.2697L166.635 65.9943L166.617 65.8745C166.587 65.6749 166.458 65.4903 166.228 65.3206L166.474 64.9165L166.653 64.8896C168.248 68.4465 169.161 71.0034 169.395 72.5602L170.208 76.3566L170.202 76.7248L169.903 76.7697L169.783 76.7876C169.338 77.6298 169.063 78.7934 168.959 80.2783C167.444 83.24 166.722 84.9604 166.794 85.4394L166.854 85.4304C167.452 85.3407 167.997 84.4835 168.489 82.859L168.779 82.7542L168.848 82.8051C168.347 84.6353 167.857 85.5863 167.378 85.658C165.407 88.0348 163.275 90.1501 160.982 92.004C159.974 93.1754 158.584 94.1182 156.814 94.8325C154.608 95.367 153.213 95.8618 152.628 96.3168L152.167 96.5083C151.259 96.4403 148.805 96.5427 144.805 96.8155C144.011 96.6896 142.895 96.7344 141.458 96.9497C140.979 97.0215 140.652 97.1521 140.476 97.3417C140.316 97.3657 139.915 97.1401 139.272 96.6649L139.033 96.7008C138.913 96.7188 138.821 97.059 138.757 97.7217L138.638 97.7396L138.647 97.7995C138.315 97.7675 138.099 97.4122 137.997 96.7336L137.531 92.3954L137.471 92.4044L137.453 92.2846C137.503 92.0731 137.628 91.9523 137.827 91.9224L140.198 91.812L140.438 91.7762C140.677 91.7403 140.951 91.6585 141.258 91.5308L143.992 91.7947L144.195 91.5193L144.15 91.2199L143.845 90.4085C143.875 89.7918 143.762 88.6252 143.504 86.9086C143.169 84.6732 142.802 83.5854 142.403 83.6452L142.298 83.3547C141.362 75.7402 140.702 69.0229 140.32 63.2028C140.368 61.8895 140.353 60.9734 140.275 60.4545L140.195 59.9156C140.081 59.1571 139.685 58.8287 139.006 58.9304L136.97 59.2354C136.93 59.2414 136.928 59.3642 136.964 59.6037L136.674 59.7084L132.455 60.1568L130.985 60.5608L130.77 60.3482L130.348 57.5339C130.091 55.8174 130.162 54.9292 130.561 54.8694C131.054 54.3465 131.9 53.9954 133.097 53.8159C134.902 53.0558 136.981 52.4993 139.337 52.1464ZM140.726 52.428L137.947 53.0892L138.154 53.2419L139.471 53.0445C140.429 52.901 140.893 52.7294 140.863 52.5298L140.726 52.428ZM135.007 53.8971C135.117 54.0847 135.902 54.1507 137.363 54.0951L137.842 54.0233L137.926 53.7658C137.302 53.4104 136.889 53.2477 136.69 53.2776C135.544 53.5309 134.983 53.7374 135.007 53.8971ZM144.327 53.1741L144.225 53.3118C144.998 53.5634 145.444 53.6802 145.564 53.6623L145.743 53.6353L145.905 53.4887C145.492 53.1832 145.066 53.0634 144.627 53.1292L144.327 53.1741ZM132.022 55.63L131.878 55.8965L131.896 56.0162C132.024 56.3236 132.108 56.4743 132.148 56.4683L132.327 56.4414C132.531 56.166 132.752 56.0104 132.992 55.9745L133.779 55.9177L133.752 55.7381L132.621 55.5403L132.022 55.63ZM147.129 53.4889L146.89 53.5247L146.917 53.7044L147.156 53.6685L147.129 53.4889ZM149.722 53.2228L149.363 53.2767L149.372 53.3365C149.681 53.4943 151.343 53.9596 154.356 54.7325L155.096 55.1727L155.275 55.1458C155.192 54.5869 153.603 53.927 150.509 53.1661L149.722 53.2228ZM139.746 55.6971L139.755 55.757C139.815 56.1562 140.863 56.2033 142.899 55.8982C143.238 55.4392 143.508 55.1948 143.707 55.1649C144.505 55.0452 144.896 54.9256 144.878 54.8058L144.851 54.6262L144.423 54.6291L144.243 54.656L142.303 55.1916C141.874 55.0518 141.54 54.9999 141.3 55.0358L141.12 55.0627C140.168 55.2461 139.71 55.4576 139.746 55.6971ZM149.114 54.4771L148.934 54.5041L148.943 54.5639C149.127 54.6997 150.088 54.9843 151.826 55.4176L152.006 55.3907L152.201 55.0555C152.159 54.776 151.13 54.5833 149.114 54.4771ZM133.522 57.0584L133.369 57.2649L133.576 57.4176L133.755 57.3907L133.848 57.1931L133.701 57.0314L133.522 57.0584ZM153.305 55.0736L152.886 55.1364C152.928 55.4158 152.729 55.5884 152.29 55.6542L152.326 55.8938C152.378 55.9676 153.111 56.2252 154.524 56.6665L154.431 56.8641C154.547 57.0916 154.816 57.2554 155.239 57.3552L155.598 57.3014L156.101 56.9811L156.718 57.0112L156.7 56.8914C156.694 56.8515 156.231 56.7576 155.311 56.6098L155.302 56.5499C155.29 56.47 155.344 56.4211 155.464 56.4032L155.566 56.2655L155.557 56.2056C154.639 55.5269 153.888 55.1495 153.305 55.0736ZM133.001 58.4833L132.848 58.6899L133.713 58.7439L133.773 58.735L133.764 58.6751C133.614 58.4934 133.42 58.4205 133.18 58.4564L133.001 58.4833ZM134.381 58.7051L134.596 58.9177L134.955 58.8639C135.155 58.834 135.28 58.7132 135.33 58.5017L135.312 58.3819L134.953 58.4358C134.633 58.4836 134.443 58.5734 134.381 58.7051ZM144.197 59.2545L144.948 62.6317C145.313 65.0668 145.356 66.3053 145.076 66.3471C144.809 65.6525 144.636 65.3112 144.556 65.3231C144.402 65.387 144.346 65.5586 144.388 65.8381L144.612 67.335C144.696 67.8939 144.838 68.1584 145.037 68.1285L145.438 67.9459L145.516 68.0567C145.48 68.6335 145.582 69.7203 145.821 71.317L147.353 79.9036C148.106 84.9334 148.223 88.7117 147.704 91.2384L147.758 91.5977C147.806 91.917 149.513 92.0081 152.88 91.871C154.996 91.5539 157.391 90.3787 160.066 88.3453C162.144 85.8708 163.237 84.1764 163.345 83.2623C163.739 82.3462 163.962 80.027 164.017 76.3047L163.936 75.7658C163.356 71.8937 162.761 69.5544 162.15 68.7479L158.738 63.1369C156.92 61.0828 155.333 59.892 153.978 59.5645C148.649 58.3222 145.845 57.722 145.566 57.7638C144.6 58.3984 144.144 58.8953 144.197 59.2545ZM140.829 58.8409C140.865 59.0804 141.043 59.1762 141.362 59.1284L141.482 59.1104L141.728 58.7063L141.701 58.5266L140.922 58.6433C140.842 58.6552 140.811 58.7211 140.829 58.8409ZM151.317 57.3306L151.335 57.4504C151.892 57.8976 152.37 58.0912 152.769 58.0314L152.724 57.732C152.026 57.4286 151.557 57.2948 151.317 57.3306ZM156.766 57.7387L156.784 57.8584C156.888 58.0061 157.18 58.1868 157.661 58.4005L157.841 58.3735L157.832 58.3137C157.784 57.9943 157.428 57.8026 156.766 57.7387ZM161.032 58.0178L161.092 58.0088C161.543 58.0229 162.394 58.9361 163.645 60.7486C164.288 61.2237 164.627 61.581 164.663 61.8205L164.69 62.0002L164.57 62.0181C164.171 62.0779 163.579 61.534 162.795 60.3862C162.741 60.0269 162.154 59.2375 161.032 58.0178ZM157.409 59.1728L157.454 59.4722C157.702 59.7617 158.335 60.1769 159.355 60.718L159.535 60.691L159.628 60.4935L159.601 60.3138C158.709 59.2638 158.223 58.7448 158.143 58.7568L157.903 58.7927C157.664 58.8286 157.499 58.9553 157.409 59.1728ZM141.221 63.4964L141.439 64.1371L141.529 64.7359L141.745 64.9485L141.864 64.9305C142.024 64.9066 142.035 64.4356 141.897 63.5174C141.76 62.5993 141.575 61.9127 141.344 61.4576L141.224 61.4755C141.104 61.4935 141.103 62.1671 141.221 63.4964ZM164.633 62.4373L164.615 62.3175L164.735 62.2996C165.591 63.11 166.067 63.8346 166.162 64.4733L166.189 64.653L166.07 64.6709C165.75 64.7188 165.271 63.9742 164.633 62.4373ZM161.546 63.0835L161.247 63.1283L161.354 63.8469C162.029 65.6233 162.926 66.9787 164.045 67.9129L164.165 67.895C163.161 65.5556 162.289 63.9518 161.546 63.0835ZM141.49 66.5172L141.37 66.5351L141.298 67.2806L141.325 67.4602L141.505 67.4333L141.535 66.8166L141.49 66.5172ZM145.157 66.886L145.328 66.7992L145.448 66.7813L145.475 66.9609L145.382 67.1585L145.202 67.1854L145.157 66.886ZM142.336 76.2474L142.443 76.9659C142.605 78.0437 142.79 78.873 143 79.4539L143.239 79.418L142.884 73.7775C142.662 72.3005 142.248 70.4852 141.639 68.3315C141.32 68.3793 141.552 71.018 142.336 76.2474ZM166.105 67.3594L165.943 67.5061L165.961 67.6258L166.039 67.7366C165.927 68.0799 165.889 68.3713 165.925 68.6108L166.733 70.3264L166.973 70.2905C167.135 69.7357 167.195 69.3186 167.153 69.0391L167.09 68.62C166.753 67.7317 166.444 67.3086 166.165 67.3504L166.105 67.3594ZM164.784 72.0266L164.545 72.0625L164.479 72.4397L164.649 73.5774C164.864 75.0145 164.871 76.4216 164.669 77.7987L164.696 77.9784L164.825 78.0203L165.065 77.9844C165.384 77.9366 165.6 77.3328 165.711 76.1732C165.847 75.9896 165.888 75.7182 165.834 75.3589L165.664 74.2212C165.437 72.7043 165.143 71.9728 164.784 72.0266ZM170.211 78.0092L170.175 77.7697L170.235 77.7607L170.426 78.2218C170.48 78.5811 170.158 79.8334 169.459 81.9789L169.246 82.1944L169.127 82.2124C169.218 81.4639 169.58 80.0629 170.211 78.0092ZM165.714 81.4993L165.723 81.5592L165.842 81.5412C166.122 81.4994 166.482 81.1801 166.923 80.5834L166.914 80.5235C166.86 80.1642 166.728 79.9596 166.516 79.9097L166.456 79.9187C165.913 80.6531 165.666 81.18 165.714 81.4993ZM147.1 84.3495L146.861 84.3854L146.918 85.1728L146.936 85.2925L147.049 85.6428L147.109 85.6338L147.262 85.4273L147.1 84.3495ZM163.725 86.2053L163.77 86.5047L164.009 86.4688C165.794 84.4872 166.711 82.9824 166.761 81.9545L166.743 81.8348C165.334 82.7806 164.328 84.2375 163.725 86.2053ZM145.21 89.7142L145.333 90.1243L145.453 90.1064C145.772 90.0585 145.931 89.8919 145.929 89.6065C145.476 87.6744 145.17 86.7203 145.01 86.7442C144.851 86.7681 144.917 87.7581 145.21 89.7142ZM161.593 87.5043L161.68 87.675L161.919 87.6391C162.073 87.5752 162.212 87.4116 162.336 87.1482L162.3 86.9086C162.294 86.8687 162.211 86.8607 162.051 86.8847C161.852 86.9146 161.699 87.1211 161.593 87.5043ZM161.183 87.627L160.97 87.8425L161.117 88.0042L161.297 87.9773L161.449 87.7707L161.422 87.5911L161.183 87.627ZM156.353 92.5751L156.371 92.6948L156.491 92.6769C158.207 92.4197 160.725 90.8383 164.045 87.9328L164.147 87.7951L164.138 87.7352C161.703 88.9164 160.02 89.944 159.09 90.8181C157.531 91.5823 156.619 92.1679 156.353 92.5751ZM138.782 92.5753L138.579 92.8507L138.761 93.2519C138.623 93.9664 138.581 94.5033 138.635 94.8625L138.662 95.0422L138.946 95.3057L139.066 95.2877L139.261 94.9524L139.144 94.174C139.078 93.7349 139.205 93.4914 139.524 93.4436L140.183 93.3449L140.345 93.1982L140.309 92.9587C140.249 92.5595 139.84 92.4167 139.082 92.5304L138.782 92.5753ZM142.021 92.947L141.86 93.0937L141.878 93.2134L142.084 93.3662L142.444 93.3123L142.605 93.1656C142.495 92.978 142.301 92.9051 142.021 92.947ZM142.946 94.2165L142.964 94.3363C143 94.5758 144.101 94.8395 146.266 95.1272L148.03 95.0467C148.577 94.8831 148.841 94.7414 148.823 94.6217L148.796 94.442C145.415 94.2139 143.465 94.1388 142.946 94.2165ZM139.952 94.6651L139.8 94.8717L140.006 95.0244L140.15 94.758L140.132 94.6382L139.952 94.6651ZM150.29 93.7896L150.129 93.9363C150.159 94.1359 150.915 94.145 152.398 93.9636L153.176 93.8469L153.287 93.7691L153.269 93.6494C153.239 93.4498 152.785 93.4158 151.907 93.5474L150.29 93.7896ZM156.802 93.12L157.58 93.0034L157.784 92.728L157.775 92.6681L157.536 92.704C157.023 92.8217 156.778 92.9603 156.802 93.12ZM149.781 94.4781L149.542 94.514L149.56 94.6337L149.799 94.5979L149.781 94.4781ZM152.559 95.0414L150.559 95.5859L150.586 95.7656C151.341 95.8974 151.898 95.9364 152.257 95.8826L152.556 95.8378C153.115 95.754 153.388 95.5295 153.374 95.1643C153.19 95.0285 152.919 94.9876 152.559 95.0414ZM185.465 59.6833L187.213 59.9111L187.752 59.8303C190.195 60.6071 192.511 61.6274 194.7 62.8912C196.999 64.3425 198.214 65.5073 198.346 66.3856L198.226 66.4035C197.823 65.8925 197.462 65.6609 197.143 65.7088L197.083 65.7177C196.963 65.7357 196.915 65.8245 196.939 65.9842C197.164 66.3993 197.637 67.104 198.358 68.098L198.477 68.0801C198.557 68.0681 198.627 67.8536 198.687 67.4365L198.747 67.4275C198.873 67.4495 199.099 68.0073 199.426 69.1012L200.145 70.218L200.142 71.0143L200.644 73.143C200.514 74.1829 200.452 75.5391 200.458 77.2117C200.412 77.994 198.98 81.1064 196.163 86.5488C194.794 88.305 193.351 89.2967 191.834 89.524C190.46 89.893 188.896 90.2091 187.139 90.4723L186.001 90.6428C185.323 90.7444 183.46 90.4318 180.412 89.7048C176.295 87.0157 174.108 84.8128 173.851 83.0963C173.17 82.0963 172.582 81.1641 172.085 80.2998C172.007 79.7808 172.289 77.9836 172.93 74.908C172.655 73.0717 172.902 71.7285 173.673 70.8784C174.945 66.5654 176.928 63.5949 179.623 61.9666C182.001 60.6717 183.948 59.9106 185.465 59.6833ZM177.504 80.1001L177.557 80.4593C178.278 81.4534 179.07 82.5183 179.934 83.6542C179.994 84.0533 180.836 84.4986 182.461 84.9898C183.305 85.7204 184.741 86.1787 186.769 86.3647L187.864 86.3229C189.567 85.7005 190.827 85.1239 191.646 84.5931L193.532 82.4737C195.409 79.7437 196.185 77.5663 195.86 75.9415L195.779 75.4026C195.444 74.7998 195.168 73.7799 194.953 72.3428C194.786 71.2251 194.734 70.3349 194.798 69.6722C194.756 69.3928 193.873 68.8109 192.149 67.9264C190.792 66.4971 189.487 65.6926 188.236 65.5127L187.517 65.6204C182.877 66.5198 180.598 67.2489 180.682 67.8078C179.8 69.0012 179.234 70.1268 178.984 71.1846C177.91 72.7333 177.406 73.7271 177.472 74.1662C177.358 75.8568 177.368 77.8347 177.504 80.1001ZM177.189 65.3313L177.054 65.6577L177.09 65.8972C177.329 65.8613 178.421 64.8405 180.366 62.835L180.818 62.5836L181.186 62.5896C183.819 61.9094 185.117 61.4496 185.081 61.2101L185.072 61.1502L184.087 61.1141C181.373 61.5208 179.073 62.9266 177.189 65.3313ZM182.048 65.889L182.057 65.9489L182.203 66.1105L183.042 65.9849L187.149 64.3899L187.131 64.2701L185.958 64.2011C183.291 64.9271 181.988 65.4898 182.048 65.889ZM174.881 82.2073L174.668 82.4228L174.731 82.842C175.014 84.1873 175.507 84.8889 176.209 84.9469L176.26 84.878L176.251 84.8182C175.697 83.0238 175.24 82.1535 174.881 82.2073ZM181.623 63.8711L181.668 64.1704C184.727 63.3446 186.248 62.8718 186.231 62.7521L185.725 62.6442L185.665 62.6532C183.749 62.9403 182.401 63.3463 181.623 63.8711ZM186.372 60.833C186.655 61.362 187.136 61.5756 187.814 61.474L188.422 61.4441L188.533 61.3663L188.488 61.0669C188.422 60.6278 187.964 60.4311 187.114 60.4769C186.601 60.5946 186.354 60.7133 186.372 60.833ZM179.26 87.7347L178.841 87.7975L178.877 88.037C179.473 88.4782 180.45 88.5971 181.807 88.3937L182.466 88.295C182.225 88.0455 181.156 87.8587 179.26 87.7347ZM189.472 88.4698L189.49 88.5895C189.508 88.7093 189.822 88.7642 190.433 88.7544C191.111 88.6527 191.436 88.502 191.406 88.3024L191.388 88.1827C191.324 88.029 191.16 87.8902 190.897 87.7665L190.358 87.8472C189.919 87.913 189.623 88.1205 189.472 88.4698ZM199.144 75.3882C199.363 76.5798 199.559 77.2035 199.73 77.2594L199.85 77.2415C199.784 76.8024 199.892 76.2965 200.174 75.7237L200.147 75.544L199.354 74.7446L199.234 74.7625C199.154 74.7745 199.124 74.983 199.144 75.3882ZM193.649 65.6813L193.409 65.7171C193.727 66.2002 194.371 66.5526 195.343 66.7743L195.583 66.7384L195.735 66.5318L195.726 66.472C194.94 65.8551 194.248 65.5915 193.649 65.6813ZM192.053 64.0224L192.071 64.1422C192.263 64.6032 192.896 65.0185 193.972 65.3879L194.152 65.361L194.245 65.1634L194.236 65.1035C193.994 64.854 193.267 64.4936 192.053 64.0224ZM187.805 62.6386L187.695 62.7164C188.543 63.2015 189.186 63.4112 189.625 63.3454L189.667 63.2167L189.658 63.1568C188.942 62.7336 188.324 62.5608 187.805 62.6386ZM183.448 87.903L183.475 88.0826C183.511 88.3221 184.088 88.3582 185.205 88.1907L185.256 88.1218L185.238 88.0021C184.684 87.8403 184.087 87.8073 183.448 87.903ZM190.76 61.5223L190.608 61.7289C191.131 62.222 191.611 62.4356 192.051 62.3698C191.985 61.9307 191.595 61.6422 190.88 61.5044L190.76 61.5223ZM177.074 69.879L177.137 70.2981L177.317 70.2712C177.764 69.7144 177.966 69.2963 177.925 69.0169L177.916 68.957L177.616 69.0019C177.401 69.1974 177.22 69.4898 177.074 69.879ZM190.194 65.0969C190.493 65.4602 190.803 65.6179 191.122 65.5701L191.164 65.4413L191.146 65.3216C191.092 64.9623 190.906 64.8066 190.586 64.8545C190.313 64.9363 190.182 65.0171 190.194 65.0969ZM198.362 79.9747L198.371 80.0345C198.69 79.9867 198.922 79.6255 199.066 78.9509L199.048 78.8311L198.868 78.858C198.628 78.8939 198.46 79.2661 198.362 79.9747ZM177.865 66.5769C178.224 66.5231 178.528 66.2327 178.775 65.7058L178.748 65.5262C178.1 65.8275 177.805 66.1777 177.865 66.5769ZM199.158 78.7533L199.458 78.7084L199.724 78.8522C199.668 78.2075 199.527 77.943 199.299 78.0587L199.179 78.0767L199.057 77.6665L199.158 78.7533ZM192.768 88.4044L192.828 88.3955C193.51 88.0483 193.84 87.7949 193.816 87.6352L193.678 87.5334C193.149 87.8167 192.846 88.1071 192.768 88.4044ZM177.688 85.8273L177.467 85.983L177.485 86.1027L178.035 86.51L178.275 86.4741C178.233 86.1947 178.038 85.9791 177.688 85.8273ZM182.316 88.9297L182.325 88.9896L183.104 88.8729L183.206 88.7352L183.059 88.5735L182.939 88.5915C182.54 88.6513 182.332 88.764 182.316 88.9297ZM199.465 70.9933L199.312 71.1998L199.348 71.4393L199.564 71.6519L199.767 71.3765L199.731 71.137L199.525 70.9843L199.465 70.9933ZM173.849 72.8723C174.049 72.8424 174.208 72.6758 174.325 72.3724L174.307 72.2527C173.948 72.3065 173.795 72.5131 173.849 72.8723ZM172.962 79.6173L172.869 79.8149C172.963 80.1682 173.05 80.3389 173.13 80.3269L173.24 80.2491L173.195 79.9497L173.022 79.6084L172.962 79.6173ZM186.877 63.3899L186.886 63.4498L187.413 62.881L187.284 62.8391C186.921 63.1384 186.785 63.322 186.877 63.3899ZM174.742 70.657L174.802 70.648C174.955 70.5842 175.011 70.4126 174.969 70.1331L174.85 70.1511C174.742 70.2489 174.706 70.4175 174.742 70.657ZM176.178 77.7886L175.974 78.064L175.992 78.1838L176.172 78.1568L176.265 77.9593L176.238 77.7796L176.178 77.7886ZM178.356 68.2176L178.116 68.2535L178.152 68.493L178.272 68.4751L178.374 68.3374L178.356 68.2176ZM83.0597 139.908L83.6914 139.629C86.8849 139.151 89.6932 139.097 92.1161 139.469L93.1341 139.316L93.9125 139.2L94.0771 139.481L94.5376 142.963C94.5336 143.209 94.4118 143.349 94.1723 143.385L93.3461 142.774L91.6755 142.657L91.1366 142.738L90.7953 142.912L90.8312 143.151C91.4259 143.307 91.8031 143.373 91.9628 143.349L91.9808 143.469C92.0047 143.628 91.5636 143.817 90.6574 144.034L92.0476 155.765L92.236 157.022L94.5806 173.078L94.7242 174.036C94.778 174.396 95.9227 174.408 98.1581 174.073L109.655 172.35L111.589 172.183C111.828 172.147 111.863 171.019 111.694 168.8C111.73 168.223 111.868 167.917 112.107 167.881C114.475 167.608 115.685 167.651 115.739 168.01C115.633 168.393 115.421 168.609 115.101 168.657L115.128 168.836C115.587 169.176 115.838 169.485 115.879 169.765C116.017 170.683 116.06 171.921 116.008 173.48L116.142 174.378L116.247 174.669C116.073 175.144 116.013 175.561 116.067 175.92C115.987 175.932 115.866 176.215 115.705 176.77C114.874 177.221 114.04 177.509 113.202 177.635L112.962 177.671L107.741 177.963L107.441 178.008L95.7171 180.255L87.3972 180.706C87.0419 180.514 86.8434 180.278 86.8015 179.999C86.7679 177.596 87.0905 176.343 87.7691 176.242C87.9388 176.012 88.6933 175.736 90.0326 175.413C90.3601 174.058 89.5128 168.266 87.4906 158.039C87.3115 155.209 86.889 151.027 86.2233 145.495L86.1335 144.896C86.0438 144.297 85.5798 144.061 84.7415 144.186L84.1847 144.147L84.1577 143.967C84.8225 143.501 85.3544 143.237 85.7536 143.177L85.7177 142.938L84.3136 142.965L83.4753 143.09L83.5112 143.33C83.6709 143.306 83.7597 143.354 83.7776 143.473C83.6878 143.691 83.5231 143.818 83.2836 143.854L83.0441 143.889C82.6209 143.79 82.3526 143.36 82.2389 142.602L82.212 142.422C82.0744 141.504 82.2472 140.887 82.7302 140.569C82.85 140.551 82.9598 140.331 83.0597 139.908ZM83.8168 141.692L83.6551 141.839L83.6731 141.959L83.9725 141.914L84.1252 141.707L84.1162 141.647L83.8168 141.692ZM91.7896 140.559L91.577 140.774L91.595 140.894L92.0321 140.951L92.041 141.011L91.8793 141.157L90.6728 141.277L90.6219 141.346L90.6668 141.645L90.8733 141.798L92.0709 141.619C92.7096 141.523 92.996 141.255 92.9302 140.816C92.6089 140.579 92.2886 140.484 91.9693 140.532L91.7896 140.559ZM87.4214 141.642C87.623 141.897 88.083 141.971 88.8015 141.864L89.2207 141.801L89.4752 141.456C89.0801 141.271 88.7029 141.205 88.3436 141.259L87.8646 141.33C87.5452 141.378 87.3975 141.482 87.4214 141.642ZM88.9601 142.513L88.6787 142.678L88.6876 142.738L88.8433 142.959L89.2624 142.897L89.6038 142.723L89.5768 142.543L89.1996 142.477L88.9601 142.513ZM88.909 143.807L88.8671 143.935L88.9927 144.774C89.1104 145.287 89.249 145.531 89.4087 145.507L89.7321 145.214L89.6693 144.795C89.5217 144.082 89.2683 143.753 88.909 143.807ZM90.2663 155.725L90.0867 155.752C90.0185 157.477 90.163 158.577 90.5202 159.055C90.7737 159.384 90.8954 159.243 90.8856 158.632L90.6494 156.647C90.5137 156.015 90.3861 155.707 90.2663 155.725ZM114.844 169.797L114.724 169.815C114.53 170.701 114.442 171.204 114.46 171.324L114.358 173.911L114.394 174.15L114.6 174.303L114.78 174.276C115.263 173.959 115.392 172.776 115.167 170.728C115.031 170.096 114.923 169.785 114.844 169.797ZM92.6645 173.365L92.3651 173.41L92.392 173.59C92.2822 174.219 92.2482 174.673 92.29 174.952C92.3738 175.511 92.5643 175.829 92.8617 175.907L93.1012 175.871C93.2609 175.847 93.254 175.257 93.0805 174.099L93.0447 173.86C93.0028 173.58 92.8761 173.415 92.6645 173.365ZM109.436 172.934L108.837 173.024L108.864 173.203C108.882 173.323 109.154 173.364 109.679 173.326C109.726 173.646 110.113 173.771 110.837 173.704L111.957 173.413L111.921 173.174C111.163 173.288 110.334 173.208 109.436 172.934ZM107.849 173.784L106.292 174.017L106.301 174.077C106.359 174.191 106.568 174.221 106.927 174.167L108.244 173.97L108.217 173.79L107.849 173.784ZM87.6252 177.733C87.9445 177.685 88.0833 177.521 88.0414 177.242L88.0234 177.122L87.9037 177.14C87.6702 177.216 87.5773 177.413 87.6252 177.733ZM93.5352 176.725L93.2358 176.77L93.2807 177.069C94.0171 177.081 97.6427 176.762 104.157 176.113L104.268 176.035L104.25 175.915L93.5352 176.725ZM87.8077 178.134L87.4574 178.248L87.4843 178.427L87.6909 178.58L87.8705 178.553L88.0232 178.347L88.0143 178.287L87.8077 178.134ZM107.648 175.712L107.547 175.85L107.564 175.97L108.121 176.009L108.96 175.883L108.942 175.763C108.918 175.603 108.766 175.545 108.487 175.586L107.648 175.712ZM110.34 176.105L110.349 176.165L110.528 176.138C110.928 176.078 111.303 175.858 111.654 175.479C111.59 175.325 111.419 175.27 111.139 175.311C110.98 175.335 110.713 175.6 110.34 176.105ZM112.112 176.084L111.223 176.278L111.232 176.338C111.599 176.61 112.022 176.71 112.501 176.638L112.681 176.611C112.88 176.581 113.048 176.474 113.184 176.291C113.407 176.421 113.639 176.467 113.878 176.432L114.357 176.36C114.797 176.294 115.024 176.178 115.04 176.013L115.031 175.953C115.001 175.753 114.368 175.746 113.13 175.931L112.112 176.084ZM95.8461 179.072L94.5377 179.33L94.5556 179.449C94.5975 179.729 95.5625 179.768 97.4507 179.567C98.6882 179.381 99.6882 179.109 100.451 178.75L100.424 178.57C98.7292 178.701 97.2233 178.866 95.9059 179.063L95.8461 179.072ZM93.3581 179.629L93.2383 179.647L93.2652 179.826L93.385 179.808L93.3581 179.629ZM102.699 178.229L102.358 178.403L102.394 178.642L102.753 178.588L103.445 178.301L103.418 178.121L102.699 178.229ZM120.415 133.025L122.406 132.42C123.803 132.211 125.009 132.765 126.022 134.082L126.729 135.936C126.762 136.706 126.473 137.77 125.86 139.127C125.419 139.724 124.659 140.103 123.581 140.264C121.066 140.641 119.453 140.495 118.74 139.827C118.022 139.118 117.575 138.042 117.4 136.599C117.24 136.623 117.154 136.595 117.142 136.515L117.124 136.395C118.041 134.34 119.138 133.216 120.415 133.025ZM119.442 134.701L119.451 134.761C120.784 134.398 121.436 134.117 121.406 133.917L121.089 133.842C119.961 134.215 119.412 134.502 119.442 134.701ZM120.72 136.285L120.78 136.276L121.148 136.282L121.268 136.264C121.707 136.198 121.962 135.997 122.034 135.66L121.956 135.549L121.238 135.656C120.919 135.704 120.746 135.914 120.72 136.285ZM124.95 135.1L124.816 135.427L124.851 135.666L124.911 135.657L125.055 135.391L125.01 135.091L124.95 135.1ZM123.809 137.292L123.836 137.471L124.076 137.435C124.355 137.393 124.554 137.221 124.672 136.917L124.645 136.738L124.525 136.756C124.246 136.798 124.007 136.976 123.809 137.292ZM122.654 138.567L122.501 138.773L122.519 138.893L123.597 138.732L123.758 138.585L123.552 138.432L122.654 138.567ZM115.901 145.395L116.081 145.368C116.442 145.599 116.862 145.679 117.341 145.607L118.066 145.132C123.495 144.318 126.233 144.071 126.281 144.39L126.404 144.801L126.556 145.818C127.035 146.563 127.329 147.295 127.436 148.013L127.58 148.971C128.076 155.55 128.546 160.867 128.99 164.923C128.946 165.174 128.929 165.605 128.939 166.216C129.003 166.37 129.195 166.423 129.514 166.375L129.694 166.348C131.849 166.025 132.966 166.123 133.044 166.642L133.002 166.77L133.056 167.13C133.678 168.016 134.145 169.497 134.456 171.573L135.054 173.932L134.893 174.079L132.276 174.593L126.288 175.49C121.817 176.16 119.528 176.136 119.42 175.418C119.354 174.978 119.169 174.557 118.864 174.154C118.941 173.857 119.108 173.607 119.364 173.406L119.543 173.379C119.727 173.514 119.918 173.567 120.118 173.538L120.238 173.52C121.395 173.346 122.758 173.04 124.325 172.601L124.307 172.481C120.838 172.756 119.079 172.734 119.032 172.415L118.9 171.945L118.801 171.286L118.448 169.747C118.388 169.348 119.855 168.924 122.849 168.475C123.248 168.416 123.314 167.487 123.044 165.691L121.403 149.835L121.284 149.853C120.166 150.021 119.595 150.025 119.571 149.865C119.565 149.825 119.616 149.756 119.724 149.658C117.329 150.017 116.089 149.917 116.005 149.359C115.84 149.343 115.736 149.195 115.694 148.915L115.886 148.152C115.862 147.992 115.709 147.791 115.428 147.547C115.699 147.18 115.823 146.508 115.799 145.532L115.901 145.395ZM117.039 146.449L117.075 146.688L117.374 146.643C118.412 146.488 118.919 146.33 118.895 146.171L118.739 145.949L118.56 145.976C117.522 146.131 117.015 146.289 117.039 146.449ZM125.119 144.809L124.967 145.016L125.233 145.16L125.353 145.142L125.326 144.962L125.119 144.809ZM118.482 147.09L117.404 147.251L117.431 147.431C117.455 147.59 117.746 147.628 118.305 147.545L118.964 147.446L119.143 147.419L121.119 147.123C121.718 147.033 122.003 146.889 121.973 146.689L121.964 146.629C121.934 146.429 120.773 146.583 118.482 147.09ZM123.82 146.351L123.272 146.372L123.29 146.492C123.569 146.45 123.939 146.598 124.398 146.938L124.517 146.92C124.597 146.908 124.628 146.842 124.61 146.722L124.73 146.704C124.89 146.68 125.016 146.845 125.11 147.198L125.23 147.18L125.978 146.456L125.925 146.097L124.658 146.225L123.82 146.351ZM124.083 149.74L124.517 150.593L124.259 151.734C124.473 152.069 124.639 152.228 124.759 152.21L124.819 152.201L124.885 151.824L124.831 151.465C124.616 150.028 124.728 149.276 125.167 149.21L125.31 148.944L125.275 148.704L125.068 148.552L124.709 148.605C124.19 148.683 123.981 149.061 124.083 149.74ZM123.079 155.707L124.057 163.458C124.138 163.731 124.219 163.862 124.299 163.85C124.419 163.832 124.472 163.641 124.458 163.275L124.263 162.386C124.433 162.157 124.533 161.325 124.563 159.892L124.509 159.533L124.264 158.713C124.474 158.477 124.572 158.319 124.56 158.24C124.335 157.824 124.189 157.397 124.124 156.958L124.106 156.838C124.265 156.815 124.13 154.549 123.7 150.042C123.532 149.741 123.388 149.599 123.268 149.617C122.67 149.707 122.607 151.737 123.079 155.707ZM125.223 149.998L124.993 150.093L125.047 150.453C125.083 150.692 125.209 150.857 125.427 150.947L125.606 150.92L125.75 150.653L125.705 150.354C125.596 150.166 125.435 150.048 125.223 149.998ZM126.386 159.803L126.087 159.848C125.989 161.372 125.994 162.494 126.101 163.213L126.161 163.204C126.361 163.174 126.498 162.317 126.572 160.632L126.509 160.213L126.386 159.803ZM126.092 165.602L126.155 166.021L126.275 166.003C126.462 165.893 126.526 165.639 126.466 165.24L126.404 164.82L126.224 164.847C126.144 164.859 126.1 165.111 126.092 165.602ZM126.346 166.482L126.203 166.748L126.248 167.048L126.427 167.021L126.64 166.805L126.613 166.626L126.406 166.473L126.346 166.482ZM131.352 167.201L131.181 167.288C131.451 167.452 131.908 167.506 132.553 167.45L132.526 167.27C132.502 167.111 132.23 167.07 131.711 167.147L131.352 167.201ZM131.968 169.68L131.277 169.968C131.428 170.435 131.824 170.62 132.462 170.525L132.642 170.498L132.615 170.318L132.468 170.156C132.462 170.117 132.604 169.973 132.893 169.725L132.849 169.426C132.807 169.147 132.703 168.999 132.537 168.983L132.298 169.019C132.184 169.077 132.074 169.297 131.968 169.68ZM120.451 170.855L120.05 171.038L120.059 171.098C120.426 171.369 121.69 171.363 123.852 171.08L124.271 171.017C124.59 170.969 124.775 170.84 124.825 170.628L124.807 170.508C123.1 170.56 121.648 170.676 120.451 170.855ZM126.187 170.73L126.471 170.994C126.831 170.94 126.98 170.713 126.921 170.314L126.621 170.359C126.382 170.395 126.237 170.519 126.187 170.73ZM131.995 171.084L131.851 171.351L131.869 171.471L131.989 171.453L132.133 171.186L132.115 171.066L131.995 171.084ZM127.438 172.135L126.669 172.311L125.831 172.437L125.866 172.676L126.714 172.61L128.432 172.231L128.405 172.051L128.166 172.087L127.438 172.135ZM133.851 173.255L133.638 173.471L133.665 173.65L134.025 173.597L134.057 173.408L133.971 173.237L133.851 173.255ZM143.051 136.184L143.913 135.81C144.951 135.654 148.015 135.807 153.104 136.269C155.581 137 156.999 137.339 157.358 137.285C157.612 136.798 157.688 136.215 157.586 135.537L157.568 135.417L157.506 134.998C157.428 134.479 157.748 134.165 158.467 134.058C158.892 133.627 159.544 133.345 160.422 133.214C161.619 133.034 162.239 133.084 162.281 133.364L163.663 138.912L163.923 140.648C164.139 142.085 164.068 142.973 163.71 143.313C163.405 143.726 163.152 143.947 162.953 143.977C160.688 144.112 159.525 143.981 159.465 143.581C159.042 142.665 158.239 142.071 157.055 141.8C152.936 140.458 150.038 139.912 148.361 140.164L146.667 140.295C144.671 140.594 143.55 141.15 143.305 141.962C142.921 142.673 142.81 143.567 142.972 144.644L142.981 144.704C143.31 146.9 144.72 148.546 147.21 149.642C149.623 150.219 151.668 150.382 153.345 150.131C153.392 150.45 154.356 150.755 156.237 151.044C156.686 151.589 157.509 151.772 158.706 151.593C160.016 151.886 162.019 153.137 164.717 155.345L164.993 155.549L165.029 155.788C165.041 155.868 164.927 155.926 164.687 155.962L164.705 156.081C165.444 157.195 165.828 157.852 165.858 158.052C166.396 161.644 166.155 163.986 165.135 165.078C164.778 166.234 163.838 167.456 162.317 168.745C160.698 170.743 158.911 171.888 156.955 172.181L154.859 172.495C151.634 172.489 149.997 172.326 149.949 172.006C147.921 171.004 146.768 170.524 146.488 170.566C144.395 169.941 142.894 169.186 141.986 168.302L141.746 168.338C141.477 169.807 141.182 170.565 140.863 170.613C138.288 170.59 136.965 170.34 136.893 169.861C136.552 169.218 136.152 167.502 135.694 164.714L135.736 160.912C135.533 159.555 135.591 158.852 135.91 158.804L139.679 157.811C139.959 157.769 140.403 158.825 141.011 160.979L143.145 163.781C143.163 163.901 145.119 164.832 149.013 166.575C150.041 167.442 151.373 167.752 153.009 167.507L155.105 167.193C157.221 166.876 158.556 165.982 159.111 164.511C159.88 163.376 160.34 161.817 160.492 159.835L160.465 159.655C160.292 158.498 159.056 157.193 156.757 155.742C155.729 154.876 154.536 154.544 153.179 154.747C152.327 154.508 150.474 154.398 147.62 154.417L142.462 152.68L139.83 151.054C138.605 149.686 137.905 148.689 137.729 148.063L137.696 147.027L137.116 144.787C137.032 144.228 137.273 143.519 137.838 142.659C137.766 142.18 138.559 140.938 140.218 138.935C141.871 137.708 142.815 136.791 143.051 136.184ZM143.74 136.693L143.775 136.932C143.799 137.092 144.08 137.193 144.617 137.235C145.682 136.994 146.2 136.773 146.171 136.574L146.135 136.334C146.093 136.055 145.513 135.999 144.395 136.166C144.076 136.214 143.857 136.39 143.74 136.693ZM159.35 134.232L159.368 134.351C159.915 135.004 160.348 135.306 160.667 135.259C160.986 135.211 161.196 134.975 161.296 134.552L161.26 134.313C161.224 134.073 160.587 134.046 159.35 134.232ZM161.724 135.774L161.58 136.04L161.778 136.133L162.077 136.088L162.023 135.729L161.724 135.774ZM145.811 139.076C145.994 139.212 146.206 139.262 146.446 139.226C146.845 139.166 147.231 138.884 147.604 138.379L147.269 138.184L146.61 138.283C146.012 138.373 145.745 138.637 145.811 139.076ZM153.945 137.796L153.954 137.856C153.972 137.976 154.224 138.02 154.709 137.988L154.888 137.961L154.879 137.901C154.867 137.821 154.556 137.786 153.945 137.796ZM148.673 139.382L148.469 139.658C148.511 139.937 149.257 140.009 150.706 139.874L150.679 139.694C150.655 139.534 150.026 139.424 148.793 139.364L148.673 139.382ZM140.568 142.495L140.577 142.554L140.706 142.596L140.945 142.56C141.728 141.79 142.089 141.205 142.029 140.806L141.969 140.815L141.85 140.833C141.411 140.899 140.983 141.453 140.568 142.495ZM157.96 138.848L157.858 138.985C158.483 139.341 159.166 139.545 159.909 139.597L159.951 139.468L159.933 139.348C159.903 139.148 159.285 138.976 158.08 138.83L157.96 138.848ZM140.194 141.632L140.023 141.719L140.101 141.83L140.11 141.89L140.341 141.794L140.314 141.614L140.194 141.632ZM154.996 139.904L154.945 139.973L154.963 140.093C156.308 140.626 157.14 140.869 157.46 140.821L157.451 140.761C157.415 140.521 156.597 140.236 154.996 139.904ZM138.616 142.542L138.317 142.587L138.32 143.015L138.347 143.195L138.424 143.306L138.634 142.662L138.616 142.542ZM138.233 144.069L138.062 144.156C138.255 144.902 138.436 145.426 138.604 145.728L138.783 145.701L138.774 145.641L138.472 144.033L138.233 144.069ZM139.93 144.366L139.718 144.581L139.744 144.761L139.924 144.734L140.188 144.449L140.17 144.33L139.93 144.366ZM160.223 142.917L160.001 143.072C160.35 143.224 160.944 143.237 161.782 143.112L162.971 142.872L162.935 142.633C162.205 142.661 161.46 142.731 160.702 142.845L160.223 142.917ZM143.181 148.899L143.07 148.977L143.088 149.096L143.235 149.258L143.833 149.168L143.806 148.989C143.749 148.875 143.54 148.845 143.181 148.899ZM140.453 149.491L140.36 149.689L140.369 149.749L140.507 149.85L140.687 149.823L140.66 149.644L140.453 149.491ZM141.585 149.689L141.525 149.698L141.543 149.818C141.954 150.654 142.299 151.051 142.579 151.009L142.818 150.973L143.073 150.629L143.064 150.569C142.437 149.929 141.944 149.635 141.585 149.689ZM144.579 149.24L144.477 149.378L144.531 149.737L144.944 150.043L145.124 150.016L145.285 149.869L145.24 149.57C145.039 149.314 144.818 149.204 144.579 149.24ZM146.71 150.39L146.608 150.528L146.617 150.588C147.208 150.989 148.049 151.292 149.141 151.495L149.234 151.298C149.198 151.058 148.357 150.756 146.71 150.39ZM150.228 151.394C150.252 151.553 151.732 151.76 154.668 152.014L155.455 151.957L155.635 151.931L155.626 151.871C154.291 151.132 152.753 150.811 151.012 150.909C150.483 151.192 150.222 151.354 150.228 151.394ZM145.114 152.405L145.054 152.414C145.096 152.693 145.389 152.874 145.931 152.956L146.042 152.878C146.012 152.678 145.703 152.521 145.114 152.405ZM151.207 153.023L151.242 153.262L152.314 153.469L152.973 153.37L152.946 153.191C152.186 153.019 151.606 152.963 151.207 153.023ZM157.739 152.901L157.2 152.982L157.227 153.161C157.503 153.365 158.65 153.805 160.67 154.482C161.576 155.081 162.248 155.348 162.688 155.282L162.747 155.273L162.84 155.075C161.743 154.015 160.042 153.29 157.739 152.901ZM159.783 156.329L159.724 156.338L159.768 156.638C159.828 157.037 160.239 157.465 161.002 157.922L161.361 157.868L161.289 157.389C161.217 156.91 160.715 156.557 159.783 156.329ZM138.353 160.397L138.053 160.442L138.089 160.682L138.227 160.784L138.449 160.628L138.353 160.397ZM136.735 165.538L137.019 167.026L137.079 167.017C137.335 166.815 137.334 165.856 137.077 164.14L137.005 163.66L136.867 163.559L136.748 163.577C136.628 163.595 136.624 164.248 136.735 165.538ZM161.561 160.838L161.262 160.883L161.306 161.182L161.495 161.215L161.648 161.009L161.561 160.838ZM164.974 160.327L164.567 160.878L164.612 161.177L164.758 161.339L164.938 161.312C165.172 161.236 165.243 160.899 165.154 160.3L164.974 160.327ZM141.567 165.916L141.388 165.943L141.424 166.182C142.136 166.851 142.772 167.143 143.33 167.06L143.45 167.042L143.423 166.862C142.425 166.195 141.807 165.88 141.567 165.916ZM160.453 165.29L160.488 165.529L160.608 165.511C160.932 165.218 161.18 164.834 161.354 164.359L161.207 164.197C160.918 164.445 160.666 164.809 160.453 165.29ZM139.118 168.364L138.818 168.409L138.854 168.649L139.181 168.783L139.411 168.688L139.393 168.568L139.118 168.364ZM163.767 165.344L161.982 167.326L162 167.446C162.012 167.526 162.098 167.554 162.257 167.53C162.737 167.458 163.299 166.72 163.946 165.317L163.767 165.344ZM149.919 170.174L148.165 170.315L148.183 170.434C148.207 170.594 148.756 170.716 149.829 170.8L150.105 171.004L150.404 170.959C150.241 170.412 150.079 170.15 149.919 170.174ZM152.021 170.716L151.814 170.564L151.85 170.803L152.03 170.776L152.021 170.716ZM151.581 171.456L151.461 171.474L151.745 171.737L152.224 171.665L152.215 171.606C152.152 171.452 151.94 171.402 151.581 171.456ZM158.527 170.415L158.425 170.553L158.452 170.732L158.589 170.834L158.829 170.798C159.581 170.645 159.946 170.488 159.922 170.328L159.724 170.236L158.527 170.415ZM152.832 171.636C153.439 171.871 154.221 171.917 155.179 171.774L155.299 171.756L157.856 171.25L157.838 171.13C157.67 170.829 156.269 170.876 153.635 171.271C153.076 171.354 152.808 171.476 152.832 171.636ZM175.881 118.714C176.76 118.582 177.514 118.714 178.145 119.11C177.857 120.459 177.84 122.523 178.093 125.301L178.379 130.89C178.421 131.17 179.24 131.19 180.837 130.951C185.548 130.245 187.936 130.112 188.002 130.551C188.201 130.521 188.459 130.605 188.774 130.802C188.453 131.381 188.31 131.79 188.346 132.03L188.373 132.209L188.732 133.38L188.348 136.131C188.39 136.411 188.749 136.765 189.426 137.194L189.444 137.314C188.533 137.777 187.779 138.053 187.18 138.143C186.535 138.199 186.201 138.147 186.177 137.987L186.159 137.867L186.689 137.727L187.108 137.664L187.312 137.388L187.294 137.269L187.045 137.245L183.043 137.906L179.74 138.339C179.541 138.369 179.489 139.52 179.584 141.791L179.524 141.8L178.542 140.968L178.461 141.653L178.515 142.013C178.723 143.124 178.952 143.702 179.204 143.746C179.363 143.722 179.449 143.342 179.461 142.606L179.398 142.186L179.578 142.159L179.665 142.33L180.107 148.141C181.824 156.333 182.862 160.402 183.222 160.348C183.613 161.595 184.207 162.159 185.006 162.039C185.487 162.253 186.046 162.312 186.685 162.216L187.763 162.055L191.329 161.337C191.409 161.325 191.707 162.362 192.223 164.448C192.399 165.074 192.328 165.554 192.011 165.888C191.739 166.255 191.204 166.498 190.406 166.618L185.813 167.429C183.298 167.805 181.078 167.424 179.152 166.284C177.974 166.052 177.236 164.938 176.937 162.942C176.696 161.876 176.078 158.704 175.082 153.425L174.581 145.173L174.231 141.614L174.159 141.135C173.629 139.5 173.024 138.733 172.345 138.835L170.549 139.104L168.453 139.418C167.855 139.508 167.277 139.737 166.72 140.107C166.315 140.127 165.735 139.662 164.981 138.714L165.38 133.206C165.356 133.046 167.756 132.584 172.58 131.821C172.502 131.302 172.683 130.601 173.122 129.719C172.349 123.468 172.102 120.321 172.381 120.279L172.354 120.1C172.342 120.02 172.237 119.995 172.037 120.025L172.01 119.845C171.992 119.725 173.283 119.348 175.881 118.714ZM173.848 120.672L173.788 120.681L173.842 121.04L174.022 121.013L173.986 120.773L173.848 120.672ZM176.441 120.406L176.237 120.681L176.255 120.801L176.641 122.151L176.761 122.133C177.168 121.582 177.345 121.127 177.291 120.768L177.255 120.529L177.04 120.316L176.441 120.406ZM174.617 122.944L174.411 122.791C174.391 123.203 174.429 123.727 174.524 124.366L174.56 124.606L174.68 124.588L174.707 123.543L174.617 122.944ZM175.174 125.432L175.054 125.45L175.703 131.414L175.712 131.474L175.918 131.626L176.038 131.609C176.317 131.567 176.382 131.047 176.233 130.049L176.026 128.672L175.467 125.755C175.351 125.528 175.254 125.42 175.174 125.432ZM165.847 133.87C165.888 134.15 166.089 134.263 166.448 134.209L167.346 134.074C168.983 133.829 170.488 133.522 171.861 133.153L171.843 133.033C171.813 132.833 170.821 132.88 168.864 133.173L166.35 133.55C165.99 133.604 165.823 133.711 165.847 133.87ZM184.493 130.832L183.759 131.248L183.041 131.355L182.023 131.508L182.05 131.687C182.964 131.795 183.74 131.801 184.379 131.706L185.756 131.499C185.836 131.487 185.867 131.422 185.849 131.302C185.703 130.875 185.451 130.688 185.092 130.742L184.493 130.832ZM186.259 131.179L186.097 131.326L186.115 131.446L186.304 131.478C186.703 131.419 186.911 131.306 186.927 131.14L186.918 131.08L186.259 131.179ZM166.975 134.864L166.873 135.002L166.927 135.361C166.987 135.761 168.354 135.76 171.029 135.359C172.386 135.156 173.05 134.954 173.02 134.755C172.948 134.276 171.153 134.279 167.634 134.766L166.975 134.864ZM179.81 133.492L179.657 133.699L179.666 133.759C179.696 133.958 180.433 133.97 181.876 133.795L182.885 133.583L184.298 133.616L184.537 133.58C184.817 133.538 184.938 133.397 184.903 133.158L184.843 133.167L180.229 133.429L179.81 133.492ZM186.474 133.841L186.271 134.116L186.28 134.176L186.546 134.32L186.845 134.275C187.205 134.221 187.406 134.068 187.45 133.817L187.253 133.724L186.474 133.841ZM167.828 136.879L167.615 137.095C167.639 137.255 167.751 137.32 167.951 137.29L169.457 137.125L171.064 136.823L171.115 136.754L171.097 136.634C170.594 136.547 169.684 136.601 168.367 136.799L167.828 136.879ZM172.669 137.317L167.732 137.873L167.75 137.993C167.792 138.273 169.33 138.185 172.364 137.73L172.825 137.539L172.816 137.479L172.669 137.317ZM181.259 136.214L180.959 136.259L180.986 136.438C181.038 136.512 181.766 136.607 183.172 136.723L183.291 136.705L183.273 136.585C182.569 136.242 181.897 136.118 181.259 136.214ZM184.402 136.355C185.534 136.553 186.519 136.589 187.357 136.463L187.561 136.188L187.507 135.829L187.3 135.676L185.983 135.873C184.905 136.035 184.378 136.195 184.402 136.355ZM176.402 139.758L176.474 140.237L176.68 140.39C176.834 140.326 176.893 140.174 176.857 139.935L176.821 139.695L176.639 139.294L176.579 139.303C176.425 139.367 176.366 139.518 176.402 139.758ZM178.779 140.504L178.444 140.309L178.471 140.489L178.746 140.692L178.806 140.683L178.779 140.504ZM176.881 140.911L176.761 140.929L176.746 141.237L176.791 141.536L176.905 141.887L177.144 141.851L177.063 141.312L177.018 141.012L176.881 140.911ZM177.62 145.024L177.44 145.051L177.512 145.53L177.727 145.743L177.847 145.725L177.811 145.485L177.62 145.024ZM175.885 153.059L176.316 154.709L176.57 156.814L176.719 157.404L176.899 157.377C177.139 157.341 177.118 156.385 176.837 154.509L176.63 153.131C176.355 151.295 176.138 150.389 175.978 150.413C175.699 150.455 175.668 151.337 175.885 153.059ZM180.486 157.207L180.366 157.225L180.369 157.653L180.441 158.132C180.483 158.411 180.586 158.559 180.752 158.575L180.872 158.557C181.025 158.493 181.084 158.341 181.048 158.102C180.913 157.469 180.725 157.171 180.486 157.207ZM181.351 159.71L181.21 160.404C181.347 161.322 181.634 161.871 182.069 162.051L182.153 161.794L182.072 161.255C181.882 160.263 181.642 159.748 181.351 159.71ZM179.078 160.479L178.898 160.506L179.033 161.404L179.207 161.745L179.266 161.736L179.368 161.598L179.216 160.581L179.078 160.479ZM181.38 163.991L181.389 164.051L181.443 164.41C181.506 164.564 181.67 164.702 181.934 164.826L182.353 164.763L182.335 164.644C182.269 164.205 181.951 163.987 181.38 163.991ZM188.206 164.193L188.445 164.157C189.886 163.696 190.586 163.326 190.544 163.046L190.406 162.944C188.909 163.577 188.176 163.993 188.206 164.193ZM179.937 164.574L179.817 164.592L179.853 164.832C180.122 165.812 180.636 166.245 181.394 166.132L181.993 166.042L182.086 165.844L182.077 165.784C182.065 165.704 181.685 165.619 180.936 165.527L179.937 164.574Z" fill="#171717"/>
</svg>
